<svg width="734" height="331" viewBox="0 0 734 331" fill="none" xmlns="http://www.w3.org/2000/svg">
<path d="M5 286L145.269 146.299C148.183 143.396 152.745 143.396 155.659 146.299L267.292 257.479C270.206 260.382 274.768 260.382 277.682 257.479L438.605 97.2081C441.519 94.3055 446.081 94.3055 448.995 97.2081L518.179 166.112C521.094 169.015 525.655 169.015 528.57 166.112L662.25 32.721M625.121 32.09L670.99 23.2562M661.61 68.4312L672 23" stroke="#5792F6" stroke-width="9" stroke-miterlimit="10" stroke-linecap="round"/>
<path d="M662.241 250.831V241.507H614.615V243.146H618.653V280.34H609.956L601.673 322.658V183.717H598.049V133.408H579.62V114.247H569.784V98.2626H566.368V70.6999H565.436V98.2626H562.019V114.349H552.184V133.408H533.961V183.717H530.131V212.714L531.373 212.407V206.874H539.759V210.358L555.29 206.567V201.238H563.676V331.982H662.241V315.28H659.135V315.383V313.026H662.241V284.234H659.135V281.98H662.241V253.187H659.135V250.831H662.241ZM629.317 271.324H624.761V253.905H629.317V271.324ZM643.294 271.324H638.738V253.905H643.294V271.324ZM656.443 271.324H651.887V253.905H656.443V271.324Z" fill="#1B2E7B"/>
<path d="M656.445 253.902H651.89V271.32H656.445V253.902Z" fill="#BDC9FE"/>
<path d="M643.293 253.902H638.737V271.32H643.293V253.902Z" fill="#BDC9FE"/>
<path d="M629.316 253.902H624.76V271.32H629.316V253.902Z" fill="#BDC9FE"/>
<path d="M467.394 202.982V102.671H450.414V75.8251H444.306V36.3766H410.864V7.37942H407.862V36.3766H401.339V0.104507H398.336V36.3766H377.215V102.671H366.344V185.769H398.336V192.941H407.862V197.347H415.42V199.806H407.862V319.381H447.929V331.984H459.732V224.807H468.119V227.574L473.917 226.139V202.982H467.394ZM388.086 96.8301H383.427V84.5345H388.086V96.8301ZM388.086 76.4399H383.427V64.1443H388.086V76.4399ZM388.086 56.0496H383.427V43.8565H388.086V56.0496ZM399.475 96.8301H394.816V84.5345H399.475V96.8301ZM399.475 76.4399H394.816V64.1443H399.475V76.4399ZM399.475 56.0496H394.816V43.8565H399.475V56.0496ZM410.968 76.4399H406.309V64.1443H410.968V76.4399ZM410.968 56.0496H406.309V43.8565H410.968V56.0496ZM422.356 76.4399H417.697V64.1443H422.356V76.4399ZM422.356 56.0496H417.697V43.8565H422.356V56.0496ZM435.298 56.0496H430.639V43.8565H435.298V56.0496Z" fill="#1B2E7B"/>
<path d="M399.475 84.637H394.816V96.9326H399.475V84.637Z" fill="#BDC9FE"/>
<path d="M388.086 84.637H383.427V96.9326H388.086V84.637Z" fill="#BDC9FE"/>
<path d="M422.358 64.1443H417.699V76.4399H422.358V64.1443Z" fill="#BDC9FE"/>
<path d="M410.97 64.1443H406.311V76.4399H410.97V64.1443Z" fill="#BDC9FE"/>
<path d="M399.475 64.1443H394.816V76.4399H399.475V64.1443Z" fill="#BDC9FE"/>
<path d="M388.086 64.1443H383.427V76.4399H388.086V64.1443Z" fill="#BDC9FE"/>
<path d="M435.3 43.8595H430.641V56.0527H435.3V43.8595Z" fill="#BDC9FE"/>
<path d="M422.358 43.8595H417.699V56.0527H422.358V43.8595Z" fill="#BDC9FE"/>
<path d="M410.97 43.8595H406.311V56.0527H410.97V43.8595Z" fill="#BDC9FE"/>
<path d="M399.475 43.8595H394.816V56.0527H399.475V43.8595Z" fill="#BDC9FE"/>
<path d="M388.086 43.8595H383.427V56.0527H388.086V43.8595Z" fill="#BDC9FE"/>
<path d="M229.161 253.702V278.396H233.716V273.477H238.375V278.396H242.931V273.477H247.59V278.396H252.145V273.477H256.805V278.396H262.188V147.345H263.845V144.783H252.145V129.311H253.699V126.852H242.931V117.835H243.863V115.888H239.204V107.589H234.13V77.4645H232.474V107.589H230.403V90.7848H228.747V107.589H223.673V115.991H218.393V117.938H220.05V126.852H209.386V129.311H210.835V144.783H199.136V147.345H200.792V247.554H229.264L229.161 253.702ZM238.375 266.407H233.716V253.702H238.375V266.407ZM247.59 266.407H242.931V253.702H247.59V266.407ZM256.805 266.407H252.145V253.702H256.805V266.407Z" fill="#1B2E7B"/>
<path d="M256.799 273.473H252.14V278.391H256.799V273.473Z" fill="#BDC9FE"/>
<path d="M247.587 273.473H242.928V278.391H247.587V273.473Z" fill="#BDC9FE"/>
<path d="M238.374 273.473H233.715V278.391H238.374V273.473Z" fill="#BDC9FE"/>
<path d="M256.799 253.702H252.14V266.407H256.799V253.702Z" fill="#BDC9FE"/>
<path d="M247.587 253.702H242.928V266.407H247.587V253.702Z" fill="#BDC9FE"/>
<path d="M238.374 253.702H233.715V266.407H238.374V253.702Z" fill="#BDC9FE"/>
<path d="M408.069 197.342V192.936H398.543V185.763H320.375V192.936H310.85V197.342H303.292V199.801H310.85V296.731H298.115V278.493H229.161V331.979H303.292V329.11H332.902V310.462H329.382V308.617H335.387V278.595H336.526V308.617H341.082V302.777H342.635V308.617H357.13V310.462H353.816V329.11H359.407V331.979H404.238V319.376H408.069V199.801H415.627V197.342H408.069ZM318.408 255.746H316.026V242.836H318.408V255.746ZM318.408 237.815H316.026V224.904H318.408V237.815ZM318.408 219.781H316.026V206.871H318.408V219.781ZM326.483 255.746H324.102V242.836H326.483V255.746ZM326.587 237.815H324.206V224.904H326.587V237.815ZM326.587 219.781H324.206V206.871H326.587V219.781ZM332.281 224.904H334.663V237.815H332.281V224.904ZM334.663 255.746H332.281V242.836H334.663V255.746ZM334.663 219.781H332.281V206.871H334.663V219.781ZM342.738 273.78H340.357V260.869H342.738V273.78ZM342.738 255.746H340.357V242.836H342.738V255.746ZM342.738 237.815H340.357V224.904H342.738V237.815ZM342.738 219.781H340.357V206.871H342.738V219.781ZM350.918 292.735H348.536V279.825H350.918V292.735ZM350.918 273.78H348.536V260.869H350.918V273.78ZM350.918 255.746H348.536V242.836H350.918V255.746ZM350.918 237.815H348.536V224.904H350.918V237.815ZM350.918 219.781H348.536V206.871H350.918V219.781ZM358.993 292.735H356.612V279.825H358.993V292.735ZM358.993 273.78H356.612V260.869H358.993V273.78ZM358.993 255.746H356.612V242.836H358.993V255.746ZM358.993 237.815H356.612V224.904H358.993V237.815ZM358.993 219.781H356.612V206.871H358.993V219.781ZM397.301 206.871H399.579V219.781H397.301V206.871ZM367.172 292.735H364.791V279.825H367.172V292.735ZM367.172 273.78H364.791V260.869H367.172V273.78ZM367.172 255.746H364.791V242.836H367.172V255.746ZM367.172 237.815H364.791V224.904H367.172V237.815ZM367.172 219.781H364.791V206.871H367.172V219.781ZM375.248 292.735H372.867V279.825H375.248V292.735ZM375.248 273.78H372.867V260.869H375.248V273.78ZM375.248 255.746H372.867V242.836H375.248V255.746ZM375.248 237.815H372.867V224.904H375.248V237.815ZM375.248 219.781H372.867V206.871H375.248V219.781ZM383.427 292.735H381.046V279.825H383.427V292.735ZM383.427 273.78H381.046V260.869H383.427V273.78ZM383.427 255.746H381.046V242.836H383.427V255.746ZM383.427 237.815H381.046V224.904H383.427V237.815ZM383.427 219.781H381.046V206.871H383.427V219.781ZM391.503 292.735H389.122V279.825H391.503V292.735ZM391.503 273.78H389.122V260.869H391.503V273.78ZM391.503 255.746H389.122V242.836H391.503V255.746ZM391.503 237.815H389.122V224.904H391.503V237.815ZM391.503 219.781H389.122V206.871H391.503V219.781ZM399.682 292.735H397.301V279.825H399.682V292.735ZM399.682 273.78H397.301V260.869H399.682V273.78ZM399.682 255.746H397.301V242.836H399.682V255.746ZM399.682 237.815H397.301V224.904H399.682V237.815Z" fill="#262463"/>
<path d="M399.681 279.83H397.3V292.74H399.681V279.83Z" fill="#D6D5FC"/>
<path d="M391.503 279.83H389.122V292.74H391.503V279.83Z" fill="#D6D5FC"/>
<path d="M383.422 279.83H381.041V292.74H383.422V279.83Z" fill="#D6D5FC"/>
<path d="M375.245 279.83H372.864V292.74H375.245V279.83Z" fill="#D6D5FC"/>
<path d="M367.172 279.83H364.791V292.74H367.172V279.83Z" fill="#D6D5FC"/>
<path d="M356.614 279.83V292.74H358.995V279.83H356.614Z" fill="#D6D5FC"/>
<path d="M350.914 279.83H348.533V292.74H350.914V279.83Z" fill="#D6D5FC"/>
<path d="M399.681 260.874H397.3V273.785H399.681V260.874Z" fill="#D6D5FC"/>
<path d="M391.503 260.874H389.122V273.785H391.503V260.874Z" fill="#D6D5FC"/>
<path d="M383.422 260.874H381.041V273.785H383.422V260.874Z" fill="#D6D5FC"/>
<path d="M375.245 260.874H372.864V273.785H375.245V260.874Z" fill="#D6D5FC"/>
<path d="M367.172 260.874H364.791V273.785H367.172V260.874Z" fill="#D6D5FC"/>
<path d="M356.614 260.874V273.785H358.995V260.874H356.614Z" fill="#D6D5FC"/>
<path d="M350.914 260.874H348.533V273.785H350.914V260.874Z" fill="#D6D5FC"/>
<path d="M342.737 260.874H340.356V273.785H342.737V260.874Z" fill="#D6D5FC"/>
<path d="M399.681 242.839H397.3V255.749H399.681V242.839Z" fill="#D6D5FC"/>
<path d="M391.609 242.839H389.227V255.749H391.609V242.839Z" fill="#D6D5FC"/>
<path d="M383.422 242.839H381.041V255.749H383.422V242.839Z" fill="#D6D5FC"/>
<path d="M375.245 242.839H372.864V255.749H375.245V242.839Z" fill="#D6D5FC"/>
<path d="M367.172 242.839H364.791V255.749H367.172V242.839Z" fill="#D6D5FC"/>
<path d="M356.614 242.839V255.749H358.995V242.839H356.614Z" fill="#D6D5FC"/>
<path d="M350.914 242.839H348.533V255.749H350.914V242.839Z" fill="#D6D5FC"/>
<path d="M342.842 242.839H340.461V255.749H342.842V242.839Z" fill="#D6D5FC"/>
<path d="M334.665 242.839H332.283V255.749H334.665V242.839Z" fill="#D6D5FC"/>
<path d="M326.584 242.839H324.202V255.749H326.584V242.839Z" fill="#D6D5FC"/>
<path d="M318.407 242.839H316.025V255.749H318.407V242.839Z" fill="#D6D5FC"/>
<path d="M399.681 224.908H397.3V237.818H399.681V224.908Z" fill="#D6D5FC"/>
<path d="M391.609 224.908H389.227V237.818H391.609V224.908Z" fill="#D6D5FC"/>
<path d="M383.422 224.908H381.041V237.818H383.422V224.908Z" fill="#D6D5FC"/>
<path d="M375.245 224.908H372.864V237.818H375.245V224.908Z" fill="#D6D5FC"/>
<path d="M367.172 224.908H364.791V237.818H367.172V224.908Z" fill="#D6D5FC"/>
<path d="M356.614 224.908V237.818H358.995V224.908H356.614Z" fill="#D6D5FC"/>
<path d="M350.914 224.908H348.533V237.818H350.914V224.908Z" fill="#D6D5FC"/>
<path d="M342.842 224.908H340.461V237.818H342.842V224.908Z" fill="#D6D5FC"/>
<path d="M334.665 224.908H332.283V237.818H334.665V224.908Z" fill="#D6D5FC"/>
<path d="M326.584 224.908H324.202V237.818H326.584V224.908Z" fill="#D6D5FC"/>
<path d="M318.407 224.908H316.025V237.818H318.407V224.908Z" fill="#D6D5FC"/>
<path d="M399.681 206.872H397.3V219.782H399.681V206.872Z" fill="#D6D5FC"/>
<path d="M391.609 206.872H389.227V219.782H391.609V206.872Z" fill="#D6D5FC"/>
<path d="M383.422 206.872H381.041V219.782H383.422V206.872Z" fill="#D6D5FC"/>
<path d="M375.245 206.872H372.864V219.782H375.245V206.872Z" fill="#D6D5FC"/>
<path d="M367.172 206.872H364.791V219.782H367.172V206.872Z" fill="#D6D5FC"/>
<path d="M356.614 206.872V219.782H358.995V206.872H356.614Z" fill="#D6D5FC"/>
<path d="M350.914 206.872H348.533V219.782H350.914V206.872Z" fill="#D6D5FC"/>
<path d="M342.842 206.872H340.461V219.782H342.842V206.872Z" fill="#D6D5FC"/>
<path d="M334.665 206.872H332.283V219.782H334.665V206.872Z" fill="#D6D5FC"/>
<path d="M326.584 206.872H324.202V219.782H326.584V206.872Z" fill="#D6D5FC"/>
<path d="M318.407 206.872H316.025V219.782H318.407V206.872Z" fill="#D6D5FC"/>
<path d="M171.075 258.005V241.201H168.694V238.947H181.635V206.774H172.317V197.654H164.966V173.268H163.413V197.654H159.893V167.12H158.34V197.654H154.095V206.774H151.817V299.503H171.075V258.005Z" fill="#262463"/>
<path d="M691.236 212.301V205.231H692.892V203.182H665.145V205.231H666.802V212.301H654.17V218.654H662.246H656.862V221.011H662.246V250.828H659.14V253.184H662.246V281.977H659.14V284.333H662.246V313.126H659.14V315.482H662.246V332.184H668.665V324.397H672.392V332.184H687.198V324.397H690.925V332.184H705.731V324.397H709.458V332.184H724.367V324.397H728.094V332.184H733.996V315.482H737.102V313.126H733.996V284.333H737.102V281.977H733.996V253.184H737.102V250.828H733.996V221.011H739.379V218.654H733.996H742.071V212.301H691.236ZM668.769 241.504V228.491H672.496V243.758H668.769V241.504ZM672.496 307.388H668.769V292.121H672.496V307.388ZM672.496 275.214H668.769V259.947H672.496V275.214ZM691.029 307.388H687.301V292.121H691.029V307.388ZM691.029 275.214H687.301V259.947H691.029V275.214ZM691.029 241.504V243.758H687.301V228.491H691.029V241.504ZM709.561 307.285H705.834V292.018H709.561V307.285ZM709.561 275.112H705.834V259.845H709.561V275.112ZM709.561 243.758H705.834V228.491H709.561V243.758ZM728.094 307.285H724.367V292.018H728.094V307.285ZM728.094 275.112H724.367V259.845H728.094V275.112ZM728.094 243.758H724.367V228.491H728.094V243.758Z" fill="#000F4B"/>
<path d="M726.236 324.297H724.372V332.084H728.099V324.297H726.236Z" fill="white"/>
<path d="M709.56 324.297H705.833V332.084H709.56V324.297Z" fill="#E5E9F9"/>
<path d="M691.029 324.297H687.301V332.084H691.029V324.297Z" fill="#E5E9F9"/>
<path d="M672.498 324.297H668.771V332.084H672.498V324.297Z" fill="#E5E9F9"/>
<path d="M728.099 292.126H724.372V307.29H728.099V292.126Z" fill="#E5E9F9"/>
<path d="M709.56 292.126H705.833V307.393H709.56V292.126Z" fill="#E5E9F9"/>
<path d="M691.029 292.126H687.301V307.393H691.029V292.126Z" fill="#E5E9F9"/>
<path d="M672.498 292.126H668.771V307.393H672.498V292.126Z" fill="#E5E9F9"/>
<path d="M728.099 259.953H724.372V275.118H728.099V259.953Z" fill="#E5E9F9"/>
<path d="M691.029 259.953H687.301V275.22H691.029V259.953Z" fill="#E5E9F9"/>
<path d="M709.56 259.953H705.833V275.22H709.56V259.953Z" fill="#E5E9F9"/>
<path d="M672.498 259.953H668.771V275.22H672.498V259.953Z" fill="#E5E9F9"/>
<path d="M724.372 243.761H728.099V228.494H724.372V243.761Z" fill="#E5E9F9"/>
<path d="M709.56 228.494H705.833V243.761H709.56V228.494Z" fill="#E5E9F9"/>
<path d="M691.029 241.507V228.494H687.301V243.761H691.029V241.507Z" fill="#E5E9F9"/>
<path d="M672.498 243.761V228.494H668.771V243.761H672.498Z" fill="#E5E9F9"/>
<path d="M555.186 201.133V206.461L539.656 210.252V206.768H531.27V212.301L530.027 212.609L515.843 216.093V212.097H507.457V218.039L473.911 226.134L468.113 227.569V224.802H459.727V331.979H473.083V319.171H478.57V331.979H496.896V319.171H502.487V331.979H520.813V319.171H526.403V331.979H544.729V319.171H550.32V331.979H563.676V201.133H555.186ZM478.467 301.752V306.261H472.98V292.223H478.467V301.752ZM478.467 272.55V279.518H472.98V265.583H478.467V272.55ZM478.467 243.245V252.775H472.98V238.737H478.467V243.245ZM496.896 243.245V238.737H502.487V252.775H496.896V243.245ZM496.896 272.55V265.583H502.487V279.62H496.896V272.55ZM502.487 301.752V306.261H496.896V292.223H502.487V301.752ZM526.403 301.752V306.261H520.813V292.223H526.403V301.752ZM526.403 272.55V279.62H520.813V265.583H526.403V272.55ZM526.403 243.245V252.775H520.813V238.737H526.403V243.245ZM550.216 301.752V306.261H544.626V292.223H550.216V301.752ZM550.216 272.55V279.518H544.626V265.583H550.216V272.55ZM550.216 243.245V252.775H544.626V238.737H550.216V243.245Z" fill="#000F4B"/>
<path d="M550.216 319.07H544.626V331.877H550.216V319.07Z" fill="#E5E9F9"/>
<path d="M526.403 319.07H520.813V331.877H526.403V319.07Z" fill="#E5E9F9"/>
<path d="M502.486 319.07H496.895V331.877H502.486V319.07Z" fill="#E5E9F9"/>
<path d="M478.567 319.07H472.977V331.877H478.567V319.07Z" fill="#E5E9F9"/>
<path d="M544.626 301.752V306.261H550.216V292.325H544.626V301.752Z" fill="#E5E9F9"/>
<path d="M520.813 301.752V306.261H526.403V292.325H520.813V301.752Z" fill="#E5E9F9"/>
<path d="M502.486 306.261V292.325H496.895V306.261H502.486Z" fill="#E5E9F9"/>
<path d="M478.567 306.261V292.325H472.977V306.261H478.567Z" fill="#E5E9F9"/>
<path d="M544.626 272.555V279.523H550.216V265.485H544.626V272.555Z" fill="#E5E9F9"/>
<path d="M520.813 265.485V279.523H526.403V265.485H520.813Z" fill="#E5E9F9"/>
<path d="M496.895 265.485V279.523H502.486V265.485H496.895Z" fill="#E5E9F9"/>
<path d="M478.567 279.523V265.485H472.977V279.523H478.567Z" fill="#E5E9F9"/>
<path d="M550.216 252.778V238.74H544.626V252.778H550.216Z" fill="#E5E9F9"/>
<path d="M526.403 252.778V238.74H520.813V252.778H526.403Z" fill="#E5E9F9"/>
<path d="M496.895 252.778H502.486V238.74H496.895V252.778Z" fill="#E5E9F9"/>
<path d="M472.977 252.778H478.567V238.74H472.977V252.778Z" fill="#E5E9F9"/>
<path d="M408.062 319.382H404.232V331.985H447.923V319.382H408.062ZM357.227 329.111H354.017V310.463H357.227V308.618H342.732V302.778H341.179V308.618H336.52V278.596H335.381V308.618H329.376V310.463H332.896V329.111H303.285V331.98H359.505V329.111H357.227ZM235.991 313.023V247.754H196.027V241.299H198.304V239.044H167.969V241.299H170.35V299.6H95.9087V331.979H235.991V313.023Z" fill="#000F4B"/>
<path d="M141.671 299.601V156.972H144.466V151.234H138.358V143.857H89.6966V132.586H71.1639L68.3685 125.311H63.813V112.196H62.8811C63.813 112.093 64.6412 111.376 64.6412 110.351C64.6412 109.327 63.813 108.507 62.7776 108.507C61.7423 108.507 60.914 109.327 60.914 110.351C60.914 111.273 61.6387 112.093 62.6741 112.196H61.7423V125.311H53.2524V143.857H46.1085V151.234H40V156.972H42.7954V331.98H141.671V299.601ZM120.964 218.04H117.962V206.769H120.964V218.04ZM120.964 198.572H117.962V187.301H120.964V198.572ZM120.964 179.002H117.962V171.215H120.964V179.002ZM117.962 171.215V167.833H120.964V171.215H117.962ZM131.318 218.04H128.419V206.769H131.318V218.04ZM131.318 198.572H128.419V187.301H131.318V198.572ZM131.318 179.002H128.419V171.215H131.318V179.002ZM128.419 171.215V167.833H131.318V171.215H128.419ZM75.3053 218.04H72.3028V206.769H75.3053V218.04ZM75.3053 198.572H72.3028V187.301H75.3053V198.572ZM75.3053 179.002H72.3028V171.215H75.3053V179.002ZM72.3028 171.215V167.833H75.3053V171.215H72.3028ZM85.6588 218.04H82.6563V206.769H85.6588V218.04ZM85.6588 198.572H82.6563V187.301H85.6588V198.572ZM85.6588 179.002H82.6563V171.215H85.6588V179.002ZM82.7598 171.215V167.833H85.7623V171.215H82.7598ZM98.3935 218.04H95.4945V206.769H98.3935V218.04ZM98.3935 198.572H95.4945V187.301H98.3935V198.572ZM98.3935 179.002H95.4945V171.215H98.3935V179.002ZM95.391 171.215V167.833H98.29V171.215H95.391ZM108.851 218.04H105.848V206.769H108.851V218.04ZM108.851 198.572H105.848V187.301H108.851V198.572ZM108.851 179.002H105.848V171.215H108.851V179.002ZM105.848 171.215V167.833H108.851V171.215H105.848Z" fill="#000F4B"/>
<path d="M131.324 206.768H128.425V218.039H131.324V206.768Z" fill="#E5E9F9"/>
<path d="M120.969 206.768H117.967V218.039H120.969V206.768Z" fill="#E5E9F9"/>
<path d="M108.853 206.768H105.85V218.039H108.853V206.768Z" fill="#E5E9F9"/>
<path d="M98.29 206.768H95.391V218.039H98.29V206.768Z" fill="#E5E9F9"/>
<path d="M85.7675 206.768H82.765V218.039H85.7675V206.768Z" fill="#E5E9F9"/>
<path d="M75.3084 206.768H72.3059V218.039H75.3084V206.768Z" fill="#E5E9F9"/>
<path d="M131.324 187.3H128.425V198.571H131.324V187.3Z" fill="#E5E9F9"/>
<path d="M120.969 187.3H117.967V198.571H120.969V187.3Z" fill="#E5E9F9"/>
<path d="M108.853 187.3H105.85V198.571H108.853V187.3Z" fill="#E5E9F9"/>
<path d="M98.29 187.3H95.391V198.571H98.29V187.3Z" fill="#E5E9F9"/>
<path d="M85.7675 187.3H82.765V198.571H85.7675V187.3Z" fill="#E5E9F9"/>
<path d="M75.3084 187.3H72.3059V198.571H75.3084V187.3Z" fill="#E5E9F9"/>
<path d="M131.324 167.832H128.425V179.001H131.324V167.832Z" fill="#E5E9F9"/>
<path d="M120.969 167.832H117.967V179.001H120.969V167.832Z" fill="#E5E9F9"/>
<path d="M108.853 167.832H105.85V179.001H108.853V167.832Z" fill="#E5E9F9"/>
<path d="M98.3935 167.832H95.391V179.001H98.3935V167.832Z" fill="#E5E9F9"/>
<path d="M85.7654 167.832H82.6594V179.001H85.7654V167.832Z" fill="#E5E9F9"/>
<path d="M75.3084 167.832H72.3059V179.001H75.3084V167.832Z" fill="#E5E9F9"/>
<g clip-path="url(#clip0_4_492)">
<path d="M668.674 95.6307C657.324 84.383 639.672 84.3871 628.326 95.6307C627.899 96.0535 627.891 96.7694 628.304 97.208L630.497 99.5397C630.891 99.9584 631.523 99.9673 631.932 99.5658C641.28 90.3902 655.719 90.3881 665.068 99.5658C665.477 99.9673 666.11 99.9577 666.504 99.5397L668.697 97.208C669.109 96.7694 669.101 96.0535 668.674 95.6307ZM648.5 109.161C646.235 109.161 644.4 111.127 644.4 113.554C644.4 115.98 646.235 117.946 648.5 117.946C650.765 117.946 652.6 115.98 652.6 113.554C652.6 111.127 650.765 109.161 648.5 109.161ZM661.484 103.423C654.1 96.4269 642.892 96.4345 635.516 103.423C635.074 103.842 635.06 104.569 635.48 105.012L637.686 107.345C638.071 107.752 638.689 107.779 639.099 107.4C644.477 102.419 652.535 102.43 657.901 107.4C658.31 107.779 658.929 107.752 659.313 107.345L661.519 105.012C661.94 104.569 661.925 103.841 661.484 103.423Z" fill="#A2D7FC" fill-opacity="0.5"/>
</g>
<g clip-path="url(#clip1_4_492)">
<path d="M310.261 32.0578L300.833 29.3422C299.741 29.0328 298.982 28.0273 298.982 26.9102C298.982 25.5094 300.134 24.375 301.557 24.375H307.345C308.411 24.375 309.458 24.693 310.331 25.2773C310.864 25.6297 311.58 25.5437 312.034 25.1055L315.072 22.1836C315.691 21.5906 315.604 20.6023 314.914 20.0781C312.776 18.4281 310.104 17.5086 307.363 17.5V13.375C307.363 12.6187 306.734 12 305.966 12H303.172C302.404 12 301.776 12.6187 301.776 13.375V17.5H301.557C295.996 17.5 291.526 22.2008 292.041 27.7781C292.408 31.7398 295.481 34.9625 299.357 36.0797L308.306 38.6578C309.397 38.9758 310.157 39.9727 310.157 41.0898C310.157 42.4906 309.004 43.625 307.581 43.625H301.793C300.728 43.625 299.68 43.307 298.807 42.7227C298.275 42.3703 297.559 42.4563 297.105 42.8945L294.067 45.8164C293.447 46.4094 293.534 47.3977 294.224 47.9219C296.363 49.5719 299.034 50.4914 301.776 50.5V54.625C301.776 55.3813 302.404 56 303.172 56H305.966C306.734 56 307.363 55.3813 307.363 54.625V50.4828C311.431 50.4055 315.246 48.025 316.591 44.2352C318.468 38.9414 315.316 33.5102 310.261 32.0578Z" fill="#A2D7FC" fill-opacity="0.5"/>
</g>
<defs>
<clipPath id="clip0_4_492">
<rect width="41" height="35.1429" fill="white" transform="translate(628 85)"/>
</clipPath>
<clipPath id="clip1_4_492">
<rect width="25.1429" height="44" fill="white" transform="translate(292 12)"/>
</clipPath>
</defs>
</svg>
