<svg id="Camada_1" data-name="Camada 1" xmlns="http://www.w3.org/2000/svg" viewBox="0 0 910.83 910.83"><defs><style>.cls-1{fill:none;stroke:#fff;stroke-miterlimit:10;stroke-width:5px;}.cls-2{fill:#fff;}</style></defs><g id="Branco"><circle class="cls-1" cx="455.41" cy="455.41" r="452.91"/><g id="Símbolo"><path class="cls-2" d="M710.07,649.29q27.4-43.11,27.39-100.59v-177H604.33V727.59a220.46,220.46,0,0,0,28.95-11.39Q682.68,692.4,710.07,649.29Z" transform="translate(-43.97 -45.5)"/><path class="cls-2" d="M414,262.65V735.92c24.62,7.25,51.84,11,81.8,11q49.07,0,89.06-13.33V262.65Z" transform="translate(-43.97 -45.5)"/><path class="cls-2" d="M288.7,649.29q-27.42-43.11-27.39-100.59v-177H394.43V727.59a220.87,220.87,0,0,1-28.94-11.39Q316.08,692.4,288.7,649.29Z" transform="translate(-43.97 -45.5)"/></g></g></svg>