<svg width="215" height="179" viewBox="0 0 215 179" fill="none" xmlns="http://www.w3.org/2000/svg">
<path d="M107.499 90.8829C130.907 90.8829 149.883 71.9072 149.883 48.4995C149.883 25.0918 130.907 6.11606 107.499 6.11606C84.0917 6.11606 65.116 25.0918 65.116 48.4995C65.116 71.9072 84.0917 90.8829 107.499 90.8829Z" stroke="white" stroke-width="5" stroke-miterlimit="10"/>
<path d="M127.216 62.3849C128.925 59.6954 129.78 56.5577 129.779 52.9717V36.408H117.321V69.7123C118.248 69.4212 119.153 69.065 120.03 68.6464C123.112 67.1616 125.507 65.0744 127.216 62.3849Z" fill="white"/>
<path d="M99.5096 26.2031V70.4918C101.814 71.1702 104.361 71.5212 107.164 71.5212C110.226 71.5212 113.004 71.1054 115.499 70.2737V26.2031H99.5096Z" fill="white"/>
<path d="M87.784 62.3849C86.0733 59.6954 85.219 56.5577 85.2208 52.9717V36.408H97.6782V69.7123C96.7516 69.421 95.8466 69.0649 94.97 68.6464C91.8875 67.1616 89.4921 65.0744 87.784 62.3849Z" fill="white"/>
<path d="M2.91733 130V104.62H6.55333V115.168C7.15333 114.16 7.95733 113.404 8.96533 112.9C9.99733 112.372 11.1493 112.108 12.4213 112.108C16.5733 112.108 18.6493 114.46 18.6493 119.164V130H15.0133V119.38C15.0133 117.868 14.7133 116.764 14.1133 116.068C13.5373 115.372 12.6253 115.024 11.3773 115.024C9.91333 115.024 8.73733 115.492 7.84933 116.428C6.98533 117.34 6.55333 118.552 6.55333 120.064V130H2.91733ZM23.3355 108.364V104.584H27.5835V108.364H23.3355ZM23.6595 130V112.432H27.2955V130H23.6595ZM39.9014 130.324C37.6934 130.324 36.0494 129.76 34.9694 128.632C33.8894 127.504 33.3494 125.872 33.3494 123.736V115.24H29.9294V112.432H33.3494V107.14H36.9854V112.432H42.4214V115.24H36.9854V123.448C36.9854 124.72 37.2494 125.68 37.7774 126.328C38.3294 126.976 39.2174 127.3 40.4414 127.3C40.8254 127.3 41.1974 127.264 41.5574 127.192C41.9174 127.096 42.2774 126.988 42.6374 126.868L43.2134 129.604C42.8534 129.82 42.3494 129.988 41.7014 130.108C41.0774 130.252 40.4774 130.324 39.9014 130.324ZM62.5069 130.324C60.2989 130.324 58.6549 129.76 57.5749 128.632C56.4949 127.504 55.9549 125.872 55.9549 123.736V115.24H52.5349V112.432H55.9549V107.14H59.5909V112.432H65.0269V115.24H59.5909V123.448C59.5909 124.72 59.8549 125.68 60.3829 126.328C60.9349 126.976 61.8229 127.3 63.0469 127.3C63.4309 127.3 63.8029 127.264 64.1629 127.192C64.5229 127.096 64.8829 126.988 65.2429 126.868L65.8189 129.604C65.4589 129.82 64.9549 129.988 64.3069 130.108C63.6829 130.252 63.0829 130.324 62.5069 130.324ZM68.1673 130V104.62H71.8033V115.168C72.4033 114.16 73.2073 113.404 74.2153 112.9C75.2473 112.372 76.3993 112.108 77.6713 112.108C81.8233 112.108 83.8993 114.46 83.8993 119.164V130H80.2633V119.38C80.2633 117.868 79.9633 116.764 79.3633 116.068C78.7873 115.372 77.8753 115.024 76.6273 115.024C75.1633 115.024 73.9873 115.492 73.0993 116.428C72.2353 117.34 71.8033 118.552 71.8033 120.064V130H68.1673ZM97.1535 130.324C94.2735 130.324 92.0055 129.52 90.3495 127.912C88.6935 126.28 87.8655 124.06 87.8655 121.252C87.8655 119.452 88.2255 117.868 88.9455 116.5C89.6895 115.108 90.7095 114.028 92.0055 113.26C93.3015 112.492 94.7895 112.108 96.4695 112.108C98.8935 112.108 100.802 112.888 102.194 114.448C103.586 115.984 104.282 118.108 104.282 120.82V122.044H91.3935C91.6575 125.692 93.5895 127.516 97.1895 127.516C98.1975 127.516 99.1815 127.36 100.142 127.048C101.126 126.736 102.05 126.22 102.914 125.5L103.994 128.02C103.202 128.74 102.182 129.304 100.934 129.712C99.6855 130.12 98.4255 130.324 97.1535 130.324ZM96.6135 114.664C95.1015 114.664 93.9015 115.132 93.0135 116.068C92.1255 117.004 91.5855 118.252 91.3935 119.812H101.222C101.15 118.18 100.718 116.92 99.9255 116.032C99.1335 115.12 98.0295 114.664 96.6135 114.664ZM125.19 130.324C122.982 130.324 121.338 129.76 120.258 128.632C119.178 127.504 118.638 125.872 118.638 123.736V115.24H115.218V112.432H118.638V107.14H122.274V112.432H127.71V115.24H122.274V123.448C122.274 124.72 122.538 125.68 123.066 126.328C123.618 126.976 124.506 127.3 125.73 127.3C126.114 127.3 126.486 127.264 126.846 127.192C127.206 127.096 127.566 126.988 127.926 126.868L128.502 129.604C128.142 129.82 127.638 129.988 126.99 130.108C126.366 130.252 125.766 130.324 125.19 130.324ZM136.467 130.324C135.243 130.324 134.151 130.084 133.191 129.604C132.231 129.124 131.463 128.476 130.887 127.66C130.335 126.844 130.059 125.92 130.059 124.888C130.059 123.592 130.383 122.572 131.031 121.828C131.703 121.084 132.795 120.544 134.307 120.208C135.843 119.872 137.907 119.704 140.499 119.704H141.723V118.768C141.723 117.4 141.435 116.416 140.859 115.816C140.283 115.216 139.335 114.916 138.015 114.916C137.007 114.916 135.999 115.072 134.991 115.384C133.983 115.672 132.951 116.14 131.895 116.788L130.779 114.232C131.691 113.584 132.831 113.068 134.199 112.684C135.567 112.3 136.875 112.108 138.123 112.108C140.523 112.108 142.299 112.684 143.451 113.836C144.603 114.964 145.179 116.74 145.179 119.164V130H141.759V127.084C141.327 128.092 140.655 128.884 139.743 129.46C138.831 130.036 137.739 130.324 136.467 130.324ZM137.187 127.732C138.483 127.732 139.563 127.276 140.427 126.364C141.291 125.452 141.723 124.3 141.723 122.908V121.936H140.535C138.783 121.936 137.403 122.02 136.395 122.188C135.411 122.356 134.703 122.644 134.271 123.052C133.863 123.436 133.659 123.976 133.659 124.672C133.659 125.584 133.971 126.328 134.595 126.904C135.219 127.456 136.083 127.732 137.187 127.732ZM150.187 130V112.432H153.715V115.564C154.627 113.476 156.523 112.312 159.403 112.072L160.591 112L160.843 115.096L158.647 115.312C155.455 115.624 153.859 117.268 153.859 120.244V130H150.187ZM171.326 136.804C169.742 136.804 168.266 136.612 166.898 136.228C165.53 135.868 164.318 135.292 163.262 134.5L164.378 131.908C165.434 132.628 166.514 133.156 167.618 133.492C168.722 133.828 169.874 133.996 171.074 133.996C174.434 133.996 176.114 132.316 176.114 128.956V126.184C175.61 127.24 174.818 128.068 173.738 128.668C172.682 129.268 171.494 129.568 170.174 129.568C168.59 129.568 167.21 129.208 166.034 128.488C164.858 127.744 163.946 126.724 163.298 125.428C162.65 124.108 162.326 122.572 162.326 120.82C162.326 119.092 162.65 117.58 163.298 116.284C163.946 114.964 164.858 113.944 166.034 113.224C167.21 112.48 168.59 112.108 170.174 112.108C171.518 112.108 172.718 112.408 173.774 113.008C174.83 113.608 175.61 114.436 176.114 115.492V112.432H179.642V128.524C179.642 131.284 178.934 133.348 177.518 134.716C176.102 136.108 174.038 136.804 171.326 136.804ZM171.038 126.724C172.574 126.724 173.798 126.196 174.71 125.14C175.622 124.084 176.078 122.644 176.078 120.82C176.078 118.996 175.622 117.568 174.71 116.536C173.798 115.48 172.574 114.952 171.038 114.952C169.502 114.952 168.278 115.48 167.366 116.536C166.454 117.568 165.998 118.996 165.998 120.82C165.998 122.644 166.454 124.084 167.366 125.14C168.278 126.196 169.502 126.724 171.038 126.724ZM192.989 130.324C190.109 130.324 187.841 129.52 186.185 127.912C184.529 126.28 183.701 124.06 183.701 121.252C183.701 119.452 184.061 117.868 184.781 116.5C185.525 115.108 186.545 114.028 187.841 113.26C189.137 112.492 190.625 112.108 192.305 112.108C194.729 112.108 196.637 112.888 198.029 114.448C199.421 115.984 200.117 118.108 200.117 120.82V122.044H187.229C187.493 125.692 189.425 127.516 193.025 127.516C194.033 127.516 195.017 127.36 195.977 127.048C196.961 126.736 197.885 126.22 198.749 125.5L199.829 128.02C199.037 128.74 198.017 129.304 196.769 129.712C195.521 130.12 194.261 130.324 192.989 130.324ZM192.449 114.664C190.937 114.664 189.737 115.132 188.849 116.068C187.961 117.004 187.421 118.252 187.229 119.812H197.057C196.985 118.18 196.553 116.92 195.761 116.032C194.969 115.12 193.865 114.664 192.449 114.664ZM211.534 130.324C209.326 130.324 207.682 129.76 206.602 128.632C205.522 127.504 204.982 125.872 204.982 123.736V115.24H201.562V112.432H204.982V107.14H208.618V112.432H214.054V115.24H208.618V123.448C208.618 124.72 208.882 125.68 209.41 126.328C209.962 126.976 210.85 127.3 212.074 127.3C212.458 127.3 212.83 127.264 213.19 127.192C213.55 127.096 213.91 126.988 214.27 126.868L214.846 129.604C214.486 129.82 213.982 129.988 213.334 130.108C212.71 130.252 212.11 130.324 211.534 130.324Z" fill="white"/>
<path d="M6.48755 155.204C5.62495 155.204 4.80775 155.083 4.03595 154.841C3.26415 154.599 2.62855 154.258 2.12915 153.82L2.71935 152.526C3.26415 152.965 3.86192 153.29 4.51265 153.502C5.17852 153.699 5.85195 153.797 6.53295 153.797C7.39555 153.797 8.04628 153.638 8.48515 153.32C8.92402 153.002 9.14345 152.571 9.14345 152.026C9.14345 151.603 8.99968 151.27 8.71215 151.027C8.42462 150.77 7.97062 150.573 7.35015 150.437L5.28445 149.983C3.40792 149.575 2.46965 148.606 2.46965 147.078C2.46965 146.079 2.86312 145.277 3.65005 144.671C4.45212 144.066 5.49632 143.763 6.78265 143.763C7.53932 143.763 8.25815 143.885 8.93915 144.127C9.63528 144.354 10.2104 144.694 10.6644 145.148L10.0515 146.442C9.61258 146.033 9.09805 145.723 8.50785 145.511C7.93278 145.284 7.35772 145.171 6.78265 145.171C5.93518 145.171 5.29202 145.337 4.85315 145.67C4.41428 146.003 4.19485 146.442 4.19485 146.987C4.19485 147.834 4.75478 148.379 5.87465 148.621L7.94035 149.053C8.90888 149.264 9.64285 149.605 10.1423 150.074C10.6417 150.528 10.8914 151.149 10.8914 151.935C10.8914 152.949 10.4903 153.751 9.68825 154.342C8.88618 154.917 7.81928 155.204 6.48755 155.204ZM18.279 155.204C17.2045 155.204 16.2738 154.97 15.4869 154.501C14.6999 154.031 14.087 153.373 13.6482 152.526C13.2244 151.663 13.0126 150.649 13.0126 149.484C13.0126 148.319 13.2244 147.312 13.6482 146.465C14.087 145.602 14.6999 144.936 15.4869 144.467C16.2738 143.998 17.2045 143.763 18.279 143.763C19.3383 143.763 20.2614 143.998 21.0484 144.467C21.8504 144.936 22.4633 145.602 22.8871 146.465C23.3259 147.312 23.5454 148.319 23.5454 149.484C23.5454 150.649 23.3259 151.663 22.8871 152.526C22.4633 153.373 21.8504 154.031 21.0484 154.501C20.2614 154.97 19.3383 155.204 18.279 155.204ZM18.279 153.729C19.308 153.729 20.1328 153.366 20.7533 152.639C21.3737 151.898 21.684 150.846 21.684 149.484C21.684 148.107 21.3737 147.055 20.7533 146.329C20.1328 145.602 19.308 145.239 18.279 145.239C17.2348 145.239 16.4024 145.602 15.782 146.329C15.1766 147.055 14.874 148.107 14.874 149.484C14.874 150.846 15.1766 151.898 15.782 152.639C16.4024 153.366 17.2348 153.729 18.279 153.729ZM29.6894 155.204C28.5696 155.204 27.7221 154.879 27.147 154.228C26.5871 153.562 26.3071 152.601 26.3071 151.345V138.996H28.1458V151.209C28.1458 152.828 28.789 153.638 30.0753 153.638C30.4537 153.638 30.7942 153.593 31.0968 153.502L31.0514 155.045C30.5823 155.151 30.1283 155.204 29.6894 155.204ZM36.9284 155.204C34.2801 155.204 32.9559 153.744 32.9559 150.823V143.968H34.7946V150.8C34.7946 151.784 34.9914 152.511 35.3848 152.98C35.7934 153.449 36.429 153.683 37.2916 153.683C38.2299 153.683 38.9941 153.373 39.5843 152.753C40.1745 152.117 40.4696 151.277 40.4696 150.233V143.968H42.3083V155H40.515V153.139C40.167 153.804 39.6751 154.319 39.0395 154.682C38.4191 155.03 37.7154 155.204 36.9284 155.204ZM50.4246 155.204C49.3199 155.204 48.3665 154.97 47.5644 154.501C46.7624 154.016 46.1419 153.343 45.703 152.48C45.2793 151.603 45.0674 150.581 45.0674 149.416C45.0674 147.66 45.5441 146.283 46.4975 145.284C47.4509 144.27 48.76 143.763 50.4246 143.763C51.1056 143.763 51.7791 143.885 52.4449 144.127C53.1108 144.369 53.6632 144.709 54.102 145.148L53.4664 146.487C53.0276 146.064 52.5433 145.754 52.0136 145.557C51.4991 145.36 51.0073 145.262 50.5381 145.262C49.388 145.262 48.5027 145.625 47.8822 146.351C47.2618 147.063 46.9515 148.092 46.9515 149.438C46.9515 150.755 47.2618 151.799 47.8822 152.571C48.5027 153.328 49.388 153.706 50.5381 153.706C51.0073 153.706 51.4991 153.608 52.0136 153.411C52.5433 153.214 53.0276 152.896 53.4664 152.458L54.102 153.797C53.6632 154.236 53.1032 154.584 52.4222 154.841C51.7564 155.083 51.0905 155.204 50.4246 155.204ZM50.4019 159.358C49.5545 159.358 48.881 159.215 48.3816 158.927L48.6767 157.928C48.9491 158.049 49.2064 158.14 49.4485 158.201C49.7058 158.261 50.0085 158.292 50.3565 158.292C50.75 158.292 51.0678 158.216 51.3099 158.065C51.5521 157.928 51.6731 157.724 51.6731 157.452C51.6731 157.028 51.3856 156.816 50.8105 156.816C50.6441 156.816 50.4776 156.831 50.3111 156.861C50.1598 156.892 49.9706 156.945 49.7436 157.02L49.3804 156.657L49.6982 154.546H50.8559L50.6062 155.976C50.7576 155.961 50.9013 155.953 51.0375 155.953C51.5975 155.953 52.0515 156.09 52.3995 156.362C52.7627 156.634 52.9443 157.013 52.9443 157.497C52.9443 158.057 52.7098 158.503 52.2406 158.836C51.7715 159.184 51.1586 159.358 50.4019 159.358ZM60.6198 155.204C59.5453 155.204 58.6146 154.97 57.8277 154.501C57.0407 154.031 56.4278 153.373 55.989 152.526C55.5652 151.663 55.3534 150.649 55.3534 149.484C55.3534 148.319 55.5652 147.312 55.989 146.465C56.4278 145.602 57.0407 144.936 57.8277 144.467C58.6146 143.998 59.5453 143.763 60.6198 143.763C61.6791 143.763 62.6022 143.998 63.3892 144.467C64.1912 144.936 64.8041 145.602 65.2279 146.465C65.6667 147.312 65.8862 148.319 65.8862 149.484C65.8862 150.649 65.6667 151.663 65.2279 152.526C64.8041 153.373 64.1912 154.031 63.3892 154.501C62.6022 154.97 61.6791 155.204 60.6198 155.204ZM60.6198 153.729C61.6488 153.729 62.4736 153.366 63.0941 152.639C63.7145 151.898 64.0248 150.846 64.0248 149.484C64.0248 148.107 63.7145 147.055 63.0941 146.329C62.4736 145.602 61.6488 145.239 60.6198 145.239C59.5756 145.239 58.7432 145.602 58.1228 146.329C57.5174 147.055 57.2148 148.107 57.2148 149.484C57.2148 150.846 57.5174 151.898 58.1228 152.639C58.7432 153.366 59.5756 153.729 60.6198 153.729ZM57.578 141.607L56.5338 141.539C56.6094 140.585 56.8591 139.844 57.2829 139.314C57.7217 138.785 58.2817 138.52 58.9627 138.52C59.2956 138.52 59.5983 138.603 59.8707 138.769C60.1582 138.921 60.4836 139.155 60.8468 139.473C61.1797 139.761 61.4445 139.965 61.6413 140.086C61.8531 140.192 62.0574 140.245 62.2542 140.245C63.026 140.245 63.4951 139.647 63.6616 138.452L64.7058 138.52C64.6301 139.473 64.3804 140.215 63.9567 140.744C63.5329 141.274 62.9806 141.539 62.2996 141.539C61.9818 141.539 61.6791 141.471 61.3916 141.335C61.1192 141.183 60.7862 140.934 60.3928 140.585C60.075 140.298 59.8101 140.101 59.5983 139.995C59.4015 139.874 59.2048 139.814 59.0081 139.814C58.2363 139.814 57.7596 140.411 57.578 141.607ZM73.6193 155.204C71.8789 155.204 70.5018 154.697 69.4879 153.683C68.4739 152.654 67.967 151.262 67.967 149.507C67.967 148.372 68.194 147.373 68.648 146.51C69.102 145.632 69.7224 144.959 70.5094 144.49C71.3114 144.006 72.2346 143.763 73.2788 143.763C74.777 143.763 75.9498 144.248 76.7973 145.216C77.6447 146.17 78.0685 147.486 78.0685 149.166V149.87H69.7603C69.8208 151.126 70.184 152.087 70.8499 152.753C71.5157 153.403 72.4389 153.729 73.6193 153.729C74.2851 153.729 74.9207 153.63 75.5261 153.434C76.1314 153.222 76.7065 152.881 77.2513 152.412L77.8869 153.706C77.3875 154.175 76.7519 154.546 75.9801 154.818C75.2083 155.076 74.4213 155.204 73.6193 155.204ZM73.3242 145.125C72.28 145.125 71.4552 145.451 70.8499 146.102C70.2445 146.752 69.8889 147.607 69.783 148.667H76.4795C76.4341 147.547 76.139 146.677 75.5942 146.056C75.0645 145.436 74.3078 145.125 73.3242 145.125ZM84.4523 155.204C83.5897 155.204 82.7725 155.083 82.0007 154.841C81.2289 154.599 80.5933 154.258 80.0939 153.82L80.6841 152.526C81.2289 152.965 81.8267 153.29 82.4774 153.502C83.1433 153.699 83.8167 153.797 84.4977 153.797C85.3603 153.797 86.011 153.638 86.4499 153.32C86.8888 153.002 87.1082 152.571 87.1082 152.026C87.1082 151.603 86.9644 151.27 86.6769 151.027C86.3894 150.77 85.9354 150.573 85.3149 150.437L83.2492 149.983C81.3727 149.575 80.4344 148.606 80.4344 147.078C80.4344 146.079 80.8279 145.277 81.6148 144.671C82.4169 144.066 83.4611 143.763 84.7474 143.763C85.5041 143.763 86.2229 143.885 86.9039 144.127C87.6 144.354 88.1751 144.694 88.6291 145.148L88.0162 146.442C87.5773 146.033 87.0628 145.723 86.4726 145.511C85.8975 145.284 85.3225 145.171 84.7474 145.171C83.8999 145.171 83.2568 145.337 82.8179 145.67C82.379 146.003 82.1596 146.442 82.1596 146.987C82.1596 147.834 82.7195 148.379 83.8394 148.621L85.9051 149.053C86.8736 149.264 87.6076 149.605 88.107 150.074C88.6064 150.528 88.8561 151.149 88.8561 151.935C88.8561 152.949 88.4551 153.751 87.653 154.342C86.8509 154.917 85.784 155.204 84.4523 155.204ZM97.2615 141.221V139.155H99.5315V141.221H97.2615ZM97.4885 155V143.968H99.3272V155H97.4885ZM102.764 155V143.968H104.558V145.852C104.921 145.156 105.435 144.634 106.101 144.286C106.767 143.938 107.516 143.763 108.349 143.763C110.967 143.763 112.276 145.216 112.276 148.122V155H110.437V148.235C110.437 147.206 110.233 146.457 109.824 145.988C109.431 145.504 108.795 145.262 107.917 145.262C106.903 145.262 106.094 145.579 105.488 146.215C104.898 146.836 104.603 147.668 104.603 148.712V155H102.764ZM120.093 155.204C118.791 155.204 117.815 154.864 117.164 154.183C116.514 153.487 116.188 152.488 116.188 151.186V145.398H114.032V143.968H116.188V140.585H118.027V143.968H121.523V145.398H118.027V151.005C118.027 151.867 118.209 152.526 118.572 152.98C118.935 153.419 119.525 153.638 120.342 153.638C120.585 153.638 120.827 153.608 121.069 153.547C121.311 153.487 121.53 153.426 121.727 153.366L122.045 154.773C121.848 154.879 121.561 154.977 121.182 155.068C120.804 155.159 120.441 155.204 120.093 155.204ZM128.463 155.204C126.722 155.204 125.345 154.697 124.331 153.683C123.317 152.654 122.811 151.262 122.811 149.507C122.811 148.372 123.038 147.373 123.492 146.51C123.946 145.632 124.566 144.959 125.353 144.49C126.155 144.006 127.078 143.763 128.122 143.763C129.621 143.763 130.793 144.248 131.641 145.216C132.488 146.17 132.912 147.486 132.912 149.166V149.87H124.604C124.664 151.126 125.028 152.087 125.693 152.753C126.359 153.403 127.282 153.729 128.463 153.729C129.129 153.729 129.764 153.63 130.37 153.434C130.975 153.222 131.55 152.881 132.095 152.412L132.73 153.706C132.231 154.175 131.595 154.546 130.824 154.818C130.052 155.076 129.265 155.204 128.463 155.204ZM128.168 145.125C127.124 145.125 126.299 145.451 125.693 146.102C125.088 146.752 124.732 147.607 124.627 148.667H131.323C131.278 147.547 130.983 146.677 130.438 146.056C129.908 145.436 129.151 145.125 128.168 145.125ZM138.955 155.204C137.835 155.204 136.988 154.879 136.413 154.228C135.853 153.562 135.573 152.601 135.573 151.345V138.996H137.412V151.209C137.412 152.828 138.055 153.638 139.341 153.638C139.72 153.638 140.06 153.593 140.363 153.502L140.317 155.045C139.848 155.151 139.394 155.204 138.955 155.204ZM142.063 141.221V139.155H144.333V141.221H142.063ZM142.29 155V143.968H144.129V155H142.29ZM152.446 159.29C151.493 159.29 150.593 159.162 149.745 158.904C148.913 158.662 148.171 158.292 147.521 157.792L148.133 156.453C148.814 156.937 149.488 157.285 150.154 157.497C150.835 157.709 151.569 157.815 152.356 157.815C154.535 157.815 155.624 156.695 155.624 154.455V152.503C155.307 153.199 154.807 153.751 154.126 154.16C153.46 154.554 152.696 154.75 151.834 154.75C150.82 154.75 149.942 154.516 149.2 154.047C148.459 153.577 147.884 152.934 147.475 152.117C147.082 151.285 146.885 150.324 146.885 149.234C146.885 148.145 147.082 147.191 147.475 146.374C147.884 145.542 148.459 144.898 149.2 144.444C149.942 143.99 150.82 143.763 151.834 143.763C152.696 143.763 153.46 143.96 154.126 144.354C154.807 144.747 155.307 145.284 155.624 145.965V143.968H157.418V154.205C157.418 155.9 156.994 157.172 156.147 158.019C155.314 158.867 154.081 159.29 152.446 159.29ZM152.174 153.252C153.233 153.252 154.073 152.889 154.694 152.162C155.314 151.436 155.624 150.46 155.624 149.234C155.624 148.008 155.314 147.04 154.694 146.329C154.073 145.602 153.233 145.239 152.174 145.239C151.13 145.239 150.297 145.602 149.677 146.329C149.057 147.04 148.746 148.008 148.746 149.234C148.746 150.46 149.057 151.436 149.677 152.162C150.297 152.889 151.13 153.252 152.174 153.252ZM165.838 155.204C164.098 155.204 162.721 154.697 161.707 153.683C160.693 152.654 160.186 151.262 160.186 149.507C160.186 148.372 160.413 147.373 160.867 146.51C161.321 145.632 161.941 144.959 162.728 144.49C163.53 144.006 164.453 143.763 165.498 143.763C166.996 143.763 168.169 144.248 169.016 145.216C169.863 146.17 170.287 147.486 170.287 149.166V149.87H161.979C162.04 151.126 162.403 152.087 163.069 152.753C163.734 153.403 164.658 153.729 165.838 153.729C166.504 153.729 167.139 153.63 167.745 153.434C168.35 153.222 168.925 152.881 169.47 152.412L170.106 153.706C169.606 154.175 168.971 154.546 168.199 154.818C167.427 155.076 166.64 155.204 165.838 155.204ZM165.543 145.125C164.499 145.125 163.674 145.451 163.069 146.102C162.463 146.752 162.108 147.607 162.002 148.667H168.698C168.653 147.547 168.358 146.677 167.813 146.056C167.283 145.436 166.527 145.125 165.543 145.125ZM172.948 155V143.968H174.742V145.852C175.105 145.156 175.619 144.634 176.285 144.286C176.951 143.938 177.7 143.763 178.532 143.763C181.151 143.763 182.46 145.216 182.46 148.122V155H180.621V148.235C180.621 147.206 180.417 146.457 180.008 145.988C179.614 145.504 178.979 145.262 178.101 145.262C177.087 145.262 176.278 145.579 175.672 146.215C175.082 146.836 174.787 147.668 174.787 148.712V155H172.948ZM190.277 155.204C188.975 155.204 187.999 154.864 187.348 154.183C186.697 153.487 186.372 152.488 186.372 151.186V145.398H184.216V143.968H186.372V140.585H188.211V143.968H191.707V145.398H188.211V151.005C188.211 151.867 188.392 152.526 188.756 152.98C189.119 153.419 189.709 153.638 190.526 153.638C190.768 153.638 191.01 153.608 191.253 153.547C191.495 153.487 191.714 153.426 191.911 153.366L192.229 154.773C192.032 154.879 191.744 154.977 191.366 155.068C190.988 155.159 190.625 155.204 190.277 155.204ZM198.647 155.204C196.906 155.204 195.529 154.697 194.515 153.683C193.501 152.654 192.994 151.262 192.994 149.507C192.994 148.372 193.221 147.373 193.675 146.51C194.129 145.632 194.75 144.959 195.537 144.49C196.339 144.006 197.262 143.763 198.306 143.763C199.804 143.763 200.977 144.248 201.825 145.216C202.672 146.17 203.096 147.486 203.096 149.166V149.87H194.788C194.848 151.126 195.211 152.087 195.877 152.753C196.543 153.403 197.466 153.729 198.647 153.729C199.312 153.729 199.948 153.63 200.553 153.434C201.159 153.222 201.734 152.881 202.279 152.412L202.914 153.706C202.415 154.175 201.779 154.546 201.007 154.818C200.236 155.076 199.449 155.204 198.647 155.204ZM198.352 145.125C197.307 145.125 196.483 145.451 195.877 146.102C195.272 146.752 194.916 147.607 194.81 148.667H201.507C201.461 147.547 201.166 146.677 200.622 146.056C200.092 145.436 199.335 145.125 198.352 145.125ZM209.48 155.204C208.617 155.204 207.8 155.083 207.028 154.841C206.256 154.599 205.621 154.258 205.121 153.82L205.711 152.526C206.256 152.965 206.854 153.29 207.505 153.502C208.171 153.699 208.844 153.797 209.525 153.797C210.388 153.797 211.038 153.638 211.477 153.32C211.916 153.002 212.136 152.571 212.136 152.026C212.136 151.603 211.992 151.27 211.704 151.027C211.417 150.77 210.963 150.573 210.342 150.437L208.277 149.983C206.4 149.575 205.462 148.606 205.462 147.078C205.462 146.079 205.855 145.277 206.642 144.671C207.444 144.066 208.488 143.763 209.775 143.763C210.531 143.763 211.25 143.885 211.931 144.127C212.627 144.354 213.202 144.694 213.656 145.148L213.044 146.442C212.605 146.033 212.09 145.723 211.5 145.511C210.925 145.284 210.35 145.171 209.775 145.171C208.927 145.171 208.284 145.337 207.845 145.67C207.406 146.003 207.187 146.442 207.187 146.987C207.187 147.834 207.747 148.379 208.867 148.621L210.932 149.053C211.901 149.264 212.635 149.605 213.134 150.074C213.634 150.528 213.883 151.149 213.883 151.935C213.883 152.949 213.482 153.751 212.68 154.342C211.878 154.917 210.811 155.204 209.48 155.204Z" fill="white"/>
<path d="M2.25402 175.952V165.03H3.54962V166.456C3.79016 165.964 4.14549 165.582 4.61562 165.308C5.09669 165.024 5.65429 164.882 6.28842 164.882C6.99909 164.882 7.61682 165.051 8.14162 165.39C8.67736 165.718 9.08736 166.194 9.37162 166.817C9.66682 167.429 9.81442 168.162 9.81442 169.015C9.81442 169.857 9.66682 170.589 9.37162 171.212C9.08736 171.825 8.67736 172.3 8.14162 172.639C7.61682 172.978 6.99909 173.148 6.28842 173.148C5.67616 173.148 5.12949 173.011 4.64842 172.738C4.16736 172.464 3.81202 172.087 3.58242 171.606V175.952H2.25402ZM6.00962 172.082C6.75309 172.082 7.34896 171.819 7.79722 171.294C8.24549 170.759 8.46962 169.999 8.46962 169.015C8.46962 168.02 8.24549 167.26 7.79722 166.735C7.34896 166.21 6.75309 165.948 6.00962 165.948C5.26616 165.948 4.67029 166.21 4.22202 166.735C3.77376 167.26 3.54962 168.02 3.54962 169.015C3.54962 169.999 3.77376 170.759 4.22202 171.294C4.67029 171.819 5.26616 172.082 6.00962 172.082ZM14.3245 173.148C13.7779 173.148 13.2859 173.044 12.8485 172.836C12.4221 172.617 12.0832 172.322 11.8317 171.95C11.5803 171.579 11.4545 171.163 11.4545 170.704C11.4545 170.125 11.6021 169.665 11.8973 169.326C12.2035 168.987 12.7009 168.747 13.3897 168.605C14.0895 168.452 15.0407 168.375 16.2433 168.375H16.7681V167.867C16.7681 167.189 16.626 166.702 16.3418 166.407C16.0684 166.101 15.6256 165.948 15.0134 165.948C14.5323 165.948 14.0676 166.019 13.6193 166.161C13.1711 166.292 12.7119 166.511 12.2417 166.817L11.7825 165.85C12.198 165.554 12.7009 165.319 13.2913 165.144C13.8927 164.969 14.4667 164.882 15.0134 164.882C16.0411 164.882 16.8009 165.133 17.2929 165.636C17.7959 166.139 18.0474 166.921 18.0474 167.982V173H16.8009V171.622C16.5932 172.093 16.2707 172.464 15.8333 172.738C15.4069 173.011 14.904 173.148 14.3245 173.148ZM14.5377 172.147C15.1937 172.147 15.7295 171.923 16.1449 171.475C16.5604 171.016 16.7681 170.436 16.7681 169.736V169.244H16.2597C15.3741 169.244 14.6744 169.288 14.1605 169.376C13.6576 169.452 13.3023 169.594 13.0945 169.802C12.8977 169.999 12.7993 170.272 12.7993 170.622C12.7993 171.07 12.9524 171.437 13.2585 171.721C13.5756 172.005 14.002 172.147 14.5377 172.147ZM20.5118 173V165.03H21.8074V166.456C22.2338 165.494 23.1085 164.964 24.4314 164.866L24.907 164.816L25.0054 165.964L24.169 166.063C23.4146 166.128 22.8406 166.369 22.447 166.784C22.0534 167.189 21.8566 167.747 21.8566 168.457V173H20.5118ZM28.8187 173.148C28.272 173.148 27.78 173.044 27.3427 172.836C26.9163 172.617 26.5774 172.322 26.3259 171.95C26.0744 171.579 25.9487 171.163 25.9487 170.704C25.9487 170.125 26.0963 169.665 26.3915 169.326C26.6976 168.987 27.1951 168.747 27.8839 168.605C28.5836 168.452 29.5348 168.375 30.7375 168.375H31.2623V167.867C31.2623 167.189 31.1202 166.702 30.8359 166.407C30.5626 166.101 30.1198 165.948 29.5075 165.948C29.0264 165.948 28.5618 166.019 28.1135 166.161C27.6652 166.292 27.206 166.511 26.7359 166.817L26.2767 165.85C26.6922 165.554 27.1951 165.319 27.7855 165.144C28.3868 164.969 28.9608 164.882 29.5075 164.882C30.5352 164.882 31.2951 165.133 31.7871 165.636C32.29 166.139 32.5415 166.921 32.5415 167.982V173H31.2951V171.622C31.0874 172.093 30.7648 172.464 30.3275 172.738C29.9011 173.011 29.3982 173.148 28.8187 173.148ZM29.0319 172.147C29.6879 172.147 30.2236 171.923 30.6391 171.475C31.0546 171.016 31.2623 170.436 31.2623 169.736V169.244H30.7539C29.8683 169.244 29.1686 169.288 28.6547 169.376C28.1518 169.452 27.7964 169.594 27.5887 169.802C27.3919 169.999 27.2935 170.272 27.2935 170.622C27.2935 171.07 27.4466 171.437 27.7527 171.721C28.0698 172.005 28.4962 172.147 29.0319 172.147ZM41.7273 173.148C41.1806 173.148 40.6886 173.044 40.2513 172.836C39.8249 172.617 39.486 172.322 39.2345 171.95C38.983 171.579 38.8573 171.163 38.8573 170.704C38.8573 170.125 39.0049 169.665 39.3001 169.326C39.6062 168.987 40.1037 168.747 40.7925 168.605C41.4922 168.452 42.4434 168.375 43.6461 168.375H44.1709V167.867C44.1709 167.189 44.0288 166.702 43.7445 166.407C43.4712 166.101 43.0284 165.948 42.4161 165.948C41.935 165.948 41.4704 166.019 41.0221 166.161C40.5738 166.292 40.1146 166.511 39.6445 166.817L39.1853 165.85C39.6008 165.554 40.1037 165.319 40.6941 165.144C41.2954 164.969 41.8694 164.882 42.4161 164.882C43.4438 164.882 44.2037 165.133 44.6957 165.636C45.1986 166.139 45.4501 166.921 45.4501 167.982V173H44.2037V171.622C43.996 172.093 43.6734 172.464 43.2361 172.738C42.8097 173.011 42.3068 173.148 41.7273 173.148ZM41.9405 172.147C42.5965 172.147 43.1322 171.923 43.5477 171.475C43.9632 171.016 44.1709 170.436 44.1709 169.736V169.244H43.6625C42.7769 169.244 42.0772 169.288 41.5633 169.376C41.0604 169.452 40.705 169.594 40.4973 169.802C40.3005 169.999 40.2021 170.272 40.2021 170.622C40.2021 171.07 40.3552 171.437 40.6613 171.721C40.9784 172.005 41.4048 172.147 41.9405 172.147ZM55.6527 176.1C54.9639 176.1 54.3133 176.007 53.7011 175.821C53.0997 175.646 52.564 175.378 52.0939 175.017L52.5367 174.05C53.0287 174.399 53.5152 174.651 53.9963 174.804C54.4883 174.957 55.0185 175.034 55.5871 175.034C57.1615 175.034 57.9487 174.225 57.9487 172.606V171.196C57.7191 171.699 57.3583 172.098 56.8663 172.393C56.3852 172.677 55.8331 172.82 55.2099 172.82C54.4773 172.82 53.8432 172.65 53.3075 172.311C52.7717 171.972 52.3563 171.508 52.0611 170.917C51.7768 170.316 51.6347 169.622 51.6347 168.834C51.6347 168.047 51.7768 167.358 52.0611 166.768C52.3563 166.167 52.7717 165.702 53.3075 165.374C53.8432 165.046 54.4773 164.882 55.2099 164.882C55.8331 164.882 56.3852 165.024 56.8663 165.308C57.3583 165.593 57.7191 165.981 57.9487 166.473V165.03H59.2443V172.426C59.2443 173.651 58.9381 174.569 58.3259 175.181C57.7245 175.793 56.8335 176.1 55.6527 176.1ZM55.4559 171.737C56.2212 171.737 56.828 171.475 57.2763 170.95C57.7245 170.425 57.9487 169.72 57.9487 168.834C57.9487 167.949 57.7245 167.249 57.2763 166.735C56.828 166.21 56.2212 165.948 55.4559 165.948C54.7015 165.948 54.1001 166.21 53.6519 166.735C53.2036 167.249 52.9795 167.949 52.9795 168.834C52.9795 169.72 53.2036 170.425 53.6519 170.95C54.1001 171.475 54.7015 171.737 55.4559 171.737ZM65.3277 173.148C64.0703 173.148 63.0754 172.781 62.3429 172.049C61.6103 171.305 61.2441 170.299 61.2441 169.031C61.2441 168.211 61.4081 167.49 61.7361 166.866C62.0641 166.232 62.5123 165.746 63.0809 165.407C63.6603 165.057 64.3273 164.882 65.0817 164.882C66.1641 164.882 67.0114 165.232 67.6237 165.932C68.2359 166.62 68.5421 167.572 68.5421 168.785V169.294H62.5397C62.5834 170.201 62.8458 170.895 63.3269 171.376C63.8079 171.847 64.4749 172.082 65.3277 172.082C65.8087 172.082 66.2679 172.011 66.7053 171.868C67.1426 171.715 67.5581 171.469 67.9517 171.13L68.4109 172.065C68.0501 172.404 67.5909 172.672 67.0333 172.869C66.4757 173.055 65.9071 173.148 65.3277 173.148ZM65.1145 165.866C64.3601 165.866 63.7642 166.101 63.3269 166.571C62.8895 167.041 62.6326 167.659 62.5561 168.424H67.3941C67.3613 167.615 67.1481 166.987 66.7545 166.538C66.3718 166.09 65.8251 165.866 65.1145 165.866ZM73.1542 173.148C72.531 173.148 71.9406 173.06 71.383 172.885C70.8254 172.71 70.3662 172.464 70.0054 172.147L70.4318 171.212C70.8254 171.529 71.2572 171.765 71.7274 171.918C72.2084 172.06 72.695 172.131 73.187 172.131C73.8102 172.131 74.2803 172.016 74.5974 171.786C74.9144 171.557 75.073 171.245 75.073 170.852C75.073 170.545 74.9691 170.305 74.7614 170.13C74.5536 169.944 74.2256 169.802 73.7774 169.704L72.285 169.376C70.9292 169.08 70.2514 168.381 70.2514 167.276C70.2514 166.555 70.5356 165.975 71.1042 165.538C71.6836 165.101 72.438 164.882 73.3674 164.882C73.914 164.882 74.4334 164.969 74.9254 165.144C75.4283 165.308 75.8438 165.554 76.1718 165.882L75.729 166.817C75.4119 166.522 75.0402 166.298 74.6138 166.145C74.1983 165.981 73.7828 165.899 73.3674 165.899C72.7551 165.899 72.2904 166.019 71.9734 166.26C71.6563 166.5 71.4978 166.817 71.4978 167.211C71.4978 167.823 71.9023 168.217 72.7114 168.392L74.2038 168.703C74.9035 168.856 75.4338 169.102 75.7946 169.441C76.1554 169.769 76.3358 170.217 76.3358 170.786C76.3358 171.519 76.046 172.098 75.4666 172.524C74.8871 172.94 74.1163 173.148 73.1542 173.148ZM81.4782 173.148C80.5379 173.148 79.8327 172.902 79.3626 172.41C78.8925 171.907 78.6574 171.185 78.6574 170.245V166.063H77.0994V165.03H78.6574V162.586H79.9858V165.03H82.5114V166.063H79.9858V170.114C79.9858 170.737 80.117 171.212 80.3794 171.54C80.6418 171.857 81.0682 172.016 81.6586 172.016C81.8335 172.016 82.0085 171.994 82.1834 171.95C82.3583 171.907 82.5169 171.863 82.659 171.819L82.8886 172.836C82.7465 172.913 82.5387 172.984 82.2654 173.049C81.9921 173.115 81.7297 173.148 81.4782 173.148ZM86.523 173.148C85.9763 173.148 85.4843 173.044 85.047 172.836C84.6206 172.617 84.2817 172.322 84.0302 171.95C83.7787 171.579 83.653 171.163 83.653 170.704C83.653 170.125 83.8006 169.665 84.0958 169.326C84.4019 168.987 84.8994 168.747 85.5882 168.605C86.2879 168.452 87.2391 168.375 88.4418 168.375H88.9666V167.867C88.9666 167.189 88.8245 166.702 88.5402 166.407C88.2669 166.101 87.8241 165.948 87.2118 165.948C86.7307 165.948 86.2661 166.019 85.8178 166.161C85.3695 166.292 84.9103 166.511 84.4402 166.817L83.981 165.85C84.3965 165.554 84.8994 165.319 85.4898 165.144C86.0911 164.969 86.6651 164.882 87.2118 164.882C88.2395 164.882 88.9994 165.133 89.4914 165.636C89.9943 166.139 90.2458 166.921 90.2458 167.982V173H88.9994V171.622C88.7917 172.093 88.4691 172.464 88.0318 172.738C87.6054 173.011 87.1025 173.148 86.523 173.148ZM86.7362 172.147C87.3922 172.147 87.9279 171.923 88.3434 171.475C88.7589 171.016 88.9666 170.436 88.9666 169.736V169.244H88.4582C87.5726 169.244 86.8729 169.288 86.359 169.376C85.8561 169.452 85.5007 169.594 85.293 169.802C85.0962 169.999 84.9978 170.272 84.9978 170.622C84.9978 171.07 85.1509 171.437 85.457 171.721C85.7741 172.005 86.2005 172.147 86.7362 172.147ZM85.0306 163.324L84.2762 163.275C84.3309 162.586 84.5113 162.05 84.8174 161.668C85.1345 161.285 85.539 161.094 86.031 161.094C86.2715 161.094 86.4902 161.154 86.687 161.274C86.8947 161.383 87.1298 161.553 87.3922 161.782C87.6327 161.99 87.8241 162.138 87.9662 162.225C88.1193 162.302 88.2669 162.34 88.409 162.34C88.9666 162.34 89.3055 161.908 89.4258 161.044L90.1802 161.094C90.1255 161.782 89.9451 162.318 89.639 162.701C89.3329 163.083 88.9338 163.275 88.4418 163.275C88.2122 163.275 87.9935 163.226 87.7858 163.127C87.589 163.018 87.3485 162.837 87.0642 162.586C86.8346 162.378 86.6433 162.236 86.4902 162.16C86.3481 162.072 86.2059 162.028 86.0638 162.028C85.5062 162.028 85.1618 162.46 85.0306 163.324ZM96.0231 173.148C95.2468 173.148 94.5744 172.978 94.0059 172.639C93.4373 172.3 92.9945 171.825 92.6775 171.212C92.3713 170.589 92.2183 169.857 92.2183 169.015C92.2183 168.173 92.3713 167.446 92.6775 166.834C92.9945 166.21 93.4373 165.729 94.0059 165.39C94.5744 165.051 95.2468 164.882 96.0231 164.882C96.7884 164.882 97.4553 165.051 98.0239 165.39C98.6033 165.729 99.0461 166.21 99.3523 166.834C99.6693 167.446 99.8279 168.173 99.8279 169.015C99.8279 169.857 99.6693 170.589 99.3523 171.212C99.0461 171.825 98.6033 172.3 98.0239 172.639C97.4553 172.978 96.7884 173.148 96.0231 173.148ZM96.0231 172.082C96.7665 172.082 97.3624 171.819 97.8107 171.294C98.2589 170.759 98.4831 169.999 98.4831 169.015C98.4831 168.02 98.2589 167.26 97.8107 166.735C97.3624 166.21 96.7665 165.948 96.0231 165.948C95.2687 165.948 94.6673 166.21 94.2191 166.735C93.7817 167.26 93.5631 168.02 93.5631 169.015C93.5631 169.999 93.7817 170.759 94.2191 171.294C94.6673 171.819 95.2687 172.082 96.0231 172.082ZM109.069 173.148C108.359 173.148 107.735 172.978 107.2 172.639C106.675 172.3 106.265 171.825 105.97 171.212C105.685 170.589 105.543 169.857 105.543 169.015C105.543 168.162 105.685 167.429 105.97 166.817C106.265 166.194 106.675 165.718 107.2 165.39C107.735 165.051 108.359 164.882 109.069 164.882C109.692 164.882 110.239 165.019 110.709 165.292C111.19 165.565 111.546 165.943 111.775 166.424V161.438H113.104V173H111.808V171.54C111.578 172.043 111.223 172.437 110.742 172.721C110.261 173.005 109.703 173.148 109.069 173.148ZM109.348 172.082C110.092 172.082 110.687 171.819 111.136 171.294C111.584 170.759 111.808 169.999 111.808 169.015C111.808 168.02 111.584 167.26 111.136 166.735C110.687 166.21 110.092 165.948 109.348 165.948C108.594 165.948 107.992 166.21 107.544 166.735C107.107 167.26 106.888 168.02 106.888 169.015C106.888 169.999 107.107 170.759 107.544 171.294C107.992 171.819 108.594 172.082 109.348 172.082ZM118.909 173.148C118.133 173.148 117.461 172.978 116.892 172.639C116.324 172.3 115.881 171.825 115.564 171.212C115.258 170.589 115.105 169.857 115.105 169.015C115.105 168.173 115.258 167.446 115.564 166.834C115.881 166.21 116.324 165.729 116.892 165.39C117.461 165.051 118.133 164.882 118.909 164.882C119.675 164.882 120.342 165.051 120.91 165.39C121.49 165.729 121.932 166.21 122.239 166.834C122.556 167.446 122.714 168.173 122.714 169.015C122.714 169.857 122.556 170.589 122.239 171.212C121.932 171.825 121.49 172.3 120.91 172.639C120.342 172.978 119.675 173.148 118.909 173.148ZM118.909 172.082C119.653 172.082 120.249 171.819 120.697 171.294C121.145 170.759 121.369 169.999 121.369 169.015C121.369 168.02 121.145 167.26 120.697 166.735C120.249 166.21 119.653 165.948 118.909 165.948C118.155 165.948 117.554 166.21 117.105 166.735C116.668 167.26 116.449 168.02 116.449 169.015C116.449 169.999 116.668 170.759 117.105 171.294C117.554 171.819 118.155 172.082 118.909 172.082ZM131.611 173.148C130.988 173.148 130.398 173.06 129.84 172.885C129.282 172.71 128.823 172.464 128.462 172.147L128.889 171.212C129.282 171.529 129.714 171.765 130.184 171.918C130.665 172.06 131.152 172.131 131.644 172.131C132.267 172.131 132.737 172.016 133.054 171.786C133.371 171.557 133.53 171.245 133.53 170.852C133.53 170.545 133.426 170.305 133.218 170.13C133.011 169.944 132.683 169.802 132.234 169.704L130.742 169.376C129.386 169.08 128.708 168.381 128.708 167.276C128.708 166.555 128.993 165.975 129.561 165.538C130.141 165.101 130.895 164.882 131.824 164.882C132.371 164.882 132.89 164.969 133.382 165.144C133.885 165.308 134.301 165.554 134.629 165.882L134.186 166.817C133.869 166.522 133.497 166.298 133.071 166.145C132.655 165.981 132.24 165.899 131.824 165.899C131.212 165.899 130.747 166.019 130.43 166.26C130.113 166.5 129.955 166.817 129.955 167.211C129.955 167.823 130.359 168.217 131.168 168.392L132.661 168.703C133.361 168.856 133.891 169.102 134.252 169.441C134.612 169.769 134.793 170.217 134.793 170.786C134.793 171.519 134.503 172.098 133.924 172.524C133.344 172.94 132.573 173.148 131.611 173.148ZM140.409 173.148C139.152 173.148 138.157 172.781 137.424 172.049C136.692 171.305 136.325 170.299 136.325 169.031C136.325 168.211 136.489 167.49 136.817 166.866C137.145 166.232 137.594 165.746 138.162 165.407C138.742 165.057 139.408 164.882 140.163 164.882C141.245 164.882 142.093 165.232 142.705 165.932C143.317 166.62 143.623 167.572 143.623 168.785V169.294H137.621C137.665 170.201 137.927 170.895 138.408 171.376C138.889 171.847 139.556 172.082 140.409 172.082C140.89 172.082 141.349 172.011 141.786 171.868C142.224 171.715 142.639 171.469 143.033 171.13L143.492 172.065C143.131 172.404 142.672 172.672 142.114 172.869C141.557 173.055 140.988 173.148 140.409 173.148ZM140.196 165.866C139.441 165.866 138.845 166.101 138.408 166.571C137.971 167.041 137.714 167.659 137.637 168.424H142.475C142.442 167.615 142.229 166.987 141.836 166.538C141.453 166.09 140.906 165.866 140.196 165.866ZM148.367 173.148C146.453 173.148 145.497 172.093 145.497 169.982V165.03H146.825V169.966C146.825 170.677 146.967 171.201 147.251 171.54C147.547 171.879 148.006 172.049 148.629 172.049C149.307 172.049 149.859 171.825 150.285 171.376C150.712 170.917 150.925 170.31 150.925 169.556V165.03H152.253V173H150.958V171.655C150.706 172.136 150.351 172.508 149.892 172.77C149.444 173.022 148.935 173.148 148.367 173.148ZM158.951 173V165.03H160.246V166.391C160.509 165.888 160.881 165.511 161.362 165.259C161.843 165.008 162.384 164.882 162.985 164.882C164.877 164.882 165.822 165.932 165.822 168.031V173H164.494V168.113C164.494 167.369 164.346 166.828 164.051 166.489C163.767 166.139 163.308 165.964 162.674 165.964C161.941 165.964 161.356 166.194 160.919 166.653C160.492 167.101 160.279 167.703 160.279 168.457V173H158.951ZM171.864 173.148C170.606 173.148 169.611 172.781 168.879 172.049C168.146 171.305 167.78 170.299 167.78 169.031C167.78 168.211 167.944 167.49 168.272 166.866C168.6 166.232 169.048 165.746 169.617 165.407C170.196 165.057 170.863 164.882 171.618 164.882C172.7 164.882 173.547 165.232 174.16 165.932C174.772 166.62 175.078 167.572 175.078 168.785V169.294H169.076C169.119 170.201 169.382 170.895 169.863 171.376C170.344 171.847 171.011 172.082 171.864 172.082C172.345 172.082 172.804 172.011 173.241 171.868C173.679 171.715 174.094 171.469 174.488 171.13L174.947 172.065C174.586 172.404 174.127 172.672 173.569 172.869C173.012 173.055 172.443 173.148 171.864 173.148ZM171.65 165.866C170.896 165.866 170.3 166.101 169.863 166.571C169.425 167.041 169.169 167.659 169.092 168.424H173.93C173.897 167.615 173.684 166.987 173.29 166.538C172.908 166.09 172.361 165.866 171.65 165.866ZM180.526 176.1C179.838 176.1 179.187 176.007 178.575 175.821C177.974 175.646 177.438 175.378 176.968 175.017L177.41 174.05C177.902 174.399 178.389 174.651 178.87 174.804C179.362 174.957 179.892 175.034 180.461 175.034C182.035 175.034 182.822 174.225 182.822 172.606V171.196C182.593 171.699 182.232 172.098 181.74 172.393C181.259 172.677 180.707 172.82 180.084 172.82C179.351 172.82 178.717 172.65 178.181 172.311C177.646 171.972 177.23 171.508 176.935 170.917C176.651 170.316 176.508 169.622 176.508 168.834C176.508 168.047 176.651 167.358 176.935 166.768C177.23 166.167 177.646 165.702 178.181 165.374C178.717 165.046 179.351 164.882 180.084 164.882C180.707 164.882 181.259 165.024 181.74 165.308C182.232 165.593 182.593 165.981 182.822 166.473V165.03H184.118V172.426C184.118 173.651 183.812 174.569 183.2 175.181C182.598 175.793 181.707 176.1 180.526 176.1ZM180.33 171.737C181.095 171.737 181.702 171.475 182.15 170.95C182.598 170.425 182.822 169.72 182.822 168.834C182.822 167.949 182.598 167.249 182.15 166.735C181.702 166.21 181.095 165.948 180.33 165.948C179.575 165.948 178.974 166.21 178.526 166.735C178.077 167.249 177.853 167.949 177.853 168.834C177.853 169.72 178.077 170.425 178.526 170.95C178.974 171.475 179.575 171.737 180.33 171.737ZM189.923 173.148C189.146 173.148 188.474 172.978 187.905 172.639C187.337 172.3 186.894 171.825 186.577 171.212C186.271 170.589 186.118 169.857 186.118 169.015C186.118 168.173 186.271 167.446 186.577 166.834C186.894 166.21 187.337 165.729 187.905 165.39C188.474 165.051 189.146 164.882 189.923 164.882C190.688 164.882 191.355 165.051 191.923 165.39C192.503 165.729 192.946 166.21 193.252 166.834C193.569 167.446 193.727 168.173 193.727 169.015C193.727 169.857 193.569 170.589 193.252 171.212C192.946 171.825 192.503 172.3 191.923 172.639C191.355 172.978 190.688 173.148 189.923 173.148ZM189.923 172.082C190.666 172.082 191.262 171.819 191.71 171.294C192.159 170.759 192.383 169.999 192.383 169.015C192.383 168.02 192.159 167.26 191.71 166.735C191.262 166.21 190.666 165.948 189.923 165.948C189.168 165.948 188.567 166.21 188.119 166.735C187.681 167.26 187.463 168.02 187.463 169.015C187.463 169.999 187.681 170.759 188.119 171.294C188.567 171.819 189.168 172.082 189.923 172.082ZM189.447 163.964L191.136 160.651H192.563L190.398 163.964H189.447ZM199.101 173.148C198.303 173.148 197.614 172.978 197.035 172.639C196.455 172.289 196.007 171.803 195.69 171.18C195.384 170.545 195.231 169.807 195.231 168.966C195.231 167.697 195.575 166.702 196.264 165.981C196.953 165.248 197.899 164.882 199.101 164.882C199.593 164.882 200.08 164.969 200.561 165.144C201.042 165.319 201.441 165.565 201.758 165.882L201.299 166.85C200.982 166.544 200.632 166.32 200.249 166.178C199.877 166.035 199.522 165.964 199.183 165.964C198.352 165.964 197.713 166.227 197.264 166.752C196.816 167.265 196.592 168.009 196.592 168.982C196.592 169.933 196.816 170.688 197.264 171.245C197.713 171.792 198.352 172.065 199.183 172.065C199.522 172.065 199.877 171.994 200.249 171.852C200.632 171.71 200.982 171.48 201.299 171.163L201.758 172.131C201.441 172.448 201.036 172.699 200.544 172.885C200.063 173.06 199.582 173.148 199.101 173.148ZM203.15 163.045V161.553H204.79V163.045H203.15ZM203.314 173V165.03H204.643V173H203.314ZM210.439 173.148C209.662 173.148 208.99 172.978 208.421 172.639C207.853 172.3 207.41 171.825 207.093 171.212C206.787 170.589 206.634 169.857 206.634 169.015C206.634 168.173 206.787 167.446 207.093 166.834C207.41 166.21 207.853 165.729 208.421 165.39C208.99 165.051 209.662 164.882 210.439 164.882C211.204 164.882 211.871 165.051 212.439 165.39C213.019 165.729 213.462 166.21 213.768 166.834C214.085 167.446 214.243 168.173 214.243 169.015C214.243 169.857 214.085 170.589 213.768 171.212C213.462 171.825 213.019 172.3 212.439 172.639C211.871 172.978 211.204 173.148 210.439 173.148ZM210.439 172.082C211.182 172.082 211.778 171.819 212.226 171.294C212.675 170.759 212.899 169.999 212.899 169.015C212.899 168.02 212.675 167.26 212.226 166.735C211.778 166.21 211.182 165.948 210.439 165.948C209.684 165.948 209.083 166.21 208.635 166.735C208.197 167.26 207.979 168.02 207.979 169.015C207.979 169.999 208.197 170.759 208.635 171.294C209.083 171.819 209.684 172.082 210.439 172.082Z" fill="white"/>
</svg>
