<svg id="Camada_1" data-name="Camada 1" xmlns="http://www.w3.org/2000/svg" viewBox="0 0 1236.43 350.16"><defs><style>.cls-1{fill:#0c4ef0;}.cls-2{fill:#050647;}.cls-3{fill:#00c2f0;}.cls-4{fill:#1e1e1e;}</style></defs><g id="Logo"><g id="Símbolo"><path class="cls-1" d="M564.52,270.12q13.61-21.39,13.59-49.93V132.34H512V309a110.86,110.86,0,0,0,14.37-5.65Q550.92,291.51,564.52,270.12Z" transform="translate(-341.78 -74.92)"/><path class="cls-2" d="M417.55,78.22V313.11a143.17,143.17,0,0,0,40.59,5.45q24.36,0,44.21-6.62V78.22Z" transform="translate(-341.78 -74.92)"/><path class="cls-3" d="M355.38,270.12q-13.61-21.39-13.6-49.93V132.34h66.08V309a110.3,110.3,0,0,1-14.37-5.65Q369,291.51,355.38,270.12Z" transform="translate(-341.78 -74.92)"/></g><g id="Logotipo"><path class="cls-2" d="M663.79,119.78q0-8.57,5.6-13t14.52-4.45a48.77,48.77,0,0,1,9.57,1,27.63,27.63,0,0,1,7.91,2.64v43.21h47.84q19.78,0,19.79,17.49a34.19,34.19,0,0,1-4.29,17.15H701.39V257q0,13.85,7.26,21.44t21.44,7.59a61.56,61.56,0,0,0,16.33-2.31,49.18,49.18,0,0,0,14.35-6.27L776,302.54q-8.58,7.26-23.26,12a96.81,96.81,0,0,1-30.18,4.78q-26.73,0-42.72-14.67t-16-39.75Z" transform="translate(-341.78 -74.92)"/><path class="cls-2" d="M956.39,247.78q0,33-21.61,52.29T875.9,319.36q-36.95,0-58.72-19.29t-21.77-52.29V166.63q0-8.58,5.6-13t14.52-4.46a48.77,48.77,0,0,1,9.57,1,27.63,27.63,0,0,1,7.91,2.64v86.76q0,45.86,42.89,45.86t42.88-45.86v-72.9q0-8.58,5.61-13t14.52-4.46a48.67,48.67,0,0,1,9.56,1,27.71,27.71,0,0,1,7.92,2.64Z" transform="translate(-341.78 -74.92)"/><path class="cls-2" d="M994.65,208.19q0-30,18.64-46.84t51.63-16.82q22.42,0,34.64,6.59t12.2,16.83a22.26,22.26,0,0,1-2.8,10.55q-2.81,5.28-5.44,6.93a72.16,72.16,0,0,0-32.66-7.25q-38.59,0-38.6,40.9v95.67H994.65Z" transform="translate(-341.78 -74.92)"/><path class="cls-2" d="M1135.35,114.51a22.69,22.69,0,0,1-6.43-16.5,22.66,22.66,0,0,1,6.43-16.49,23.5,23.5,0,0,1,32.66,0A22.66,22.66,0,0,1,1174.44,98a22.69,22.69,0,0,1-6.43,16.5,23.53,23.53,0,0,1-32.66,0Zm35.13,200.24h-37.6V166.63q0-8.58,5.6-13t14.52-4.46a48.77,48.77,0,0,1,9.57,1,27.74,27.74,0,0,1,7.91,2.64Z" transform="translate(-341.78 -74.92)"/><path class="cls-2" d="M1216.17,276.48q-12-19.8-12-44.53t12-44.54a88,88,0,0,1,32.49-31.34q20.46-11.53,46.19-11.54t46.34,11.54a86.44,86.44,0,0,1,32.5,31.34q11.88,19.8,11.87,44.54t-11.87,44.53a86.37,86.37,0,0,1-32.5,31.34q-20.61,11.55-46.34,11.54t-46.19-11.54A87.89,87.89,0,0,1,1216.17,276.48Zm123.54-16.33q6.6-12.37,6.6-28.2t-6.6-28.21a48.38,48.38,0,0,0-18.31-19.3,54.34,54.34,0,0,0-53.11,0,48.38,48.38,0,0,0-18.31,19.3q-6.6,12.38-6.6,28.21t6.6,28.2a48.38,48.38,0,0,0,18.31,19.3,54.34,54.34,0,0,0,53.11,0A48.38,48.38,0,0,0,1339.71,260.15Z" transform="translate(-341.78 -74.92)"/><path class="cls-2" d="M1417.23,214.79q0-21.1,10.06-36.95t28.21-24.57q18.13-8.75,42.22-8.74,24.42,0,42.39,8.74a67.21,67.21,0,0,1,28,24.57q10.06,15.84,10.07,36.95v100h-37.61V224.36q0-22.44-10.89-34.15t-32-11.71q-42.88,0-42.88,45.86v90.39h-37.61Z" transform="translate(-341.78 -74.92)"/></g><g id="Tagline"><g id="Curvas"><path class="cls-4" d="M1139,411.53q-3,.45-6.51.74c-2.35.19-4.58.29-6.71.29q-7.93,0-11.92-2.5c-2.66-1.66-4-4.25-4-7.79a8.59,8.59,0,0,1,3.61-7.48q3.6-2.55,11.28-2.55c1.36,0,2.94.06,4.76.19s3.58.3,5.33.51c0-3.54-1-6.12-2.91-7.76s-4.74-2.46-8.4-2.46a19.76,19.76,0,0,0-5.65.73,9.76,9.76,0,0,0-3.68,1.82,2.81,2.81,0,0,1-1.15-2.17c0-1.19,1-2.14,2.91-2.84a22,22,0,0,1,7.44-1.06q15.6,0,15.59,13.23Zm-24.85-9.13c0,2.55.91,4.33,2.75,5.33s4.83,1.5,9,1.5c1.74,0,3.4-.07,5-.22a22.94,22.94,0,0,0,4-.67V396.52c-2-.34-3.88-.58-5.62-.7s-3.3-.2-4.67-.2c-4,0-6.68.59-8.18,1.76A6,6,0,0,0,1114.14,402.4Z" transform="translate(-341.78 -74.92)"/><path class="cls-4" d="M1146.92,392.75a13.55,13.55,0,0,1,1.82-7.13,12.33,12.33,0,0,1,5.17-4.72,17.17,17.17,0,0,1,7.83-1.7,17.45,17.45,0,0,1,7.86,1.66,12.55,12.55,0,0,1,5.18,4.7,13.57,13.57,0,0,1,1.85,7.19v18.91h-4.22V394c0-3.62-.91-6.39-2.75-8.31s-4.47-2.88-7.92-2.88-6.08,1-7.89,2.85-2.72,4.67-2.72,8.34v17.63h-4.21Z" transform="translate(-341.78 -74.92)"/><path class="cls-4" d="M1212.09,411.53q-3,.45-6.52.74t-6.71.29q-7.92,0-11.91-2.5c-2.66-1.66-4-4.25-4-7.79a8.61,8.61,0,0,1,3.61-7.48q3.62-2.55,11.28-2.55c1.37,0,3,.06,4.76.19s3.59.3,5.34.51c0-3.54-1-6.12-2.91-7.76s-4.74-2.46-8.4-2.46a19.83,19.83,0,0,0-5.66.73,9.71,9.71,0,0,0-3.67,1.82,2.78,2.78,0,0,1-1.15-2.17c0-1.19,1-2.14,2.91-2.84a21.93,21.93,0,0,1,7.44-1.06q15.59,0,15.59,13.23Zm-24.85-9.13q0,3.83,2.74,5.33c1.83,1,4.84,1.5,9,1.5,1.75,0,3.41-.07,5-.22a23.11,23.11,0,0,0,4-.67V396.52c-2-.34-3.88-.58-5.62-.7s-3.31-.2-4.67-.2q-5.94,0-8.18,1.76A6,6,0,0,0,1187.24,402.4Z" transform="translate(-341.78 -74.92)"/><path class="cls-4" d="M1224.23,411.66H1220V366.74c0-1.45.77-2.17,2.3-2.17a3.74,3.74,0,0,1,1.92.45Z" transform="translate(-341.78 -74.92)"/><path class="cls-4" d="M1261.87,409.36c0,5.16-1.37,9.06-4.09,11.73s-6.76,4-12.08,4a39.3,39.3,0,0,1-6.52-.57,31.42,31.42,0,0,1-5.88-1.54l1.22-3.32a29.17,29.17,0,0,0,5.37,1.34,35.87,35.87,0,0,0,5.75.51q6.25,0,9.17-2.9t2.9-8.54v-2.93a8.77,8.77,0,0,1-4.12,4,15.51,15.51,0,0,1-7.06,1.47q-6.45,0-10.41-3.58t-4-10V382.27c0-1.45.77-2.17,2.3-2.17a3.43,3.43,0,0,1,1.92.44v17.58c0,3.53.88,6.22,2.65,8.05s4.34,2.74,7.7,2.74c3.54,0,6.24-1,8.12-3s2.81-4.8,2.81-8.46V382.27c0-1.45.77-2.17,2.3-2.17a3.45,3.45,0,0,1,1.92.44Z" transform="translate(-341.78 -74.92)"/><path class="cls-4" d="M1296.94,402.78a8.25,8.25,0,0,1-3.83,7.13q-3.83,2.64-10.16,2.65a33.74,33.74,0,0,1-6.16-.58,42.69,42.69,0,0,1-5.69-1.4,12.81,12.81,0,0,1-3.61-1.67l1.79-3.25a22.58,22.58,0,0,0,5.94,2.36,29.7,29.7,0,0,0,7.6,1c3.16,0,5.56-.49,7.22-1.47a4.64,4.64,0,0,0,2.5-4.22q0-4.53-7.1-5.37l-7.28-.83a14.72,14.72,0,0,1-7.86-2.84,7.36,7.36,0,0,1-2.75-6,7.58,7.58,0,0,1,3.64-6.68q3.64-2.4,10.36-2.4a34.08,34.08,0,0,1,6.61.61,16.87,16.87,0,0,1,4.89,1.66c1.23.7,1.85,1.5,1.85,2.4a2.71,2.71,0,0,1-.38,1.31,2.76,2.76,0,0,1-1.09,1.05,12.78,12.78,0,0,0-5.24-2.52,27.38,27.38,0,0,0-7.35-1,13.58,13.58,0,0,0-6.71,1.37,4.38,4.38,0,0,0-2.36,4c0,2.9,2.24,4.6,6.71,5.12l7.28.83Q1297,395.31,1296.94,402.78Z" transform="translate(-341.78 -74.92)"/><path class="cls-4" d="M1303.69,371.18a3.09,3.09,0,0,1-.87-2.2,3.13,3.13,0,0,1,.87-2.21,3.09,3.09,0,0,1,4.4,0A3.13,3.13,0,0,1,1309,369a3.09,3.09,0,0,1-.87,2.2,3.07,3.07,0,0,1-4.4,0Zm4.31,40.48h-4.22V382.27c0-1.45.77-2.17,2.3-2.17a3.84,3.84,0,0,1,1.92.44Z" transform="translate(-341.78 -74.92)"/><path class="cls-4" d="M1343.78,402.78a8.27,8.27,0,0,1-3.83,7.13q-3.84,2.64-10.16,2.65a33.85,33.85,0,0,1-6.17-.58,43.08,43.08,0,0,1-5.69-1.4,13,13,0,0,1-3.61-1.67l1.79-3.25a22.8,22.8,0,0,0,6,2.36,29.64,29.64,0,0,0,7.6,1q4.72,0,7.22-1.47a4.65,4.65,0,0,0,2.49-4.22q0-4.53-7.09-5.37l-7.29-.83a14.71,14.71,0,0,1-7.85-2.84,7.34,7.34,0,0,1-2.75-6,7.56,7.56,0,0,1,3.64-6.68q3.65-2.4,10.35-2.4a34.19,34.19,0,0,1,6.62.61,16.69,16.69,0,0,1,4.88,1.66q1.86,1,1.86,2.4a2.63,2.63,0,0,1-.39,1.31,2.73,2.73,0,0,1-1.08,1.05,12.84,12.84,0,0,0-5.24-2.52,27.49,27.49,0,0,0-7.35-1,13.52,13.52,0,0,0-6.71,1.37,4.36,4.36,0,0,0-2.36,4c0,2.9,2.23,4.6,6.7,5.12l7.29.83Q1343.78,395.31,1343.78,402.78Z" transform="translate(-341.78 -74.92)"/><path class="cls-4" d="M1394.19,402.78a8.25,8.25,0,0,1-3.83,7.13q-3.84,2.64-10.16,2.65A33.93,33.93,0,0,1,1374,412a42.91,42.91,0,0,1-5.68-1.4,12.67,12.67,0,0,1-3.61-1.67l1.79-3.25a22.58,22.58,0,0,0,5.94,2.36,29.7,29.7,0,0,0,7.6,1c3.16,0,5.56-.49,7.22-1.47a4.64,4.64,0,0,0,2.5-4.22q0-4.53-7.1-5.37l-7.28-.83a14.72,14.72,0,0,1-7.86-2.84,7.36,7.36,0,0,1-2.75-6,7.58,7.58,0,0,1,3.64-6.68q3.64-2.4,10.36-2.4a34.16,34.16,0,0,1,6.61.61,16.87,16.87,0,0,1,4.89,1.66c1.23.7,1.85,1.5,1.85,2.4a2.71,2.71,0,0,1-.38,1.31,2.76,2.76,0,0,1-1.09,1.05,12.78,12.78,0,0,0-5.24-2.52,27.43,27.43,0,0,0-7.35-1,13.58,13.58,0,0,0-6.71,1.37,4.38,4.38,0,0,0-2.36,4c0,2.9,2.24,4.6,6.71,5.12l7.28.83Q1394.2,395.31,1394.19,402.78Z" transform="translate(-341.78 -74.92)"/><path class="cls-4" d="M1430.42,409.36c0,5.16-1.36,9.06-4.09,11.73s-6.75,4-12.07,4a39.3,39.3,0,0,1-6.52-.57,31.22,31.22,0,0,1-5.88-1.54l1.22-3.32a29.26,29.26,0,0,0,5.36,1.34,36.06,36.06,0,0,0,5.75.51q6.27,0,9.17-2.9t2.91-8.54v-2.93a8.77,8.77,0,0,1-4.12,4,15.51,15.51,0,0,1-7.06,1.47q-6.45,0-10.42-3.58t-4-10V382.27c0-1.45.77-2.17,2.3-2.17a3.45,3.45,0,0,1,1.92.44v17.58c0,3.53.88,6.22,2.65,8.05s4.33,2.74,7.7,2.74c3.54,0,6.24-1,8.12-3s2.81-4.8,2.81-8.46V382.27c0-1.45.76-2.17,2.3-2.17a3.39,3.39,0,0,1,1.91.44Z" transform="translate(-341.78 -74.92)"/><path class="cls-4" d="M1465.5,402.78a8.27,8.27,0,0,1-3.83,7.13q-3.84,2.64-10.16,2.65a33.93,33.93,0,0,1-6.17-.58,42.52,42.52,0,0,1-5.68-1.4,12.67,12.67,0,0,1-3.61-1.67l1.79-3.25a22.58,22.58,0,0,0,5.94,2.36,29.7,29.7,0,0,0,7.6,1q4.72,0,7.22-1.47a4.65,4.65,0,0,0,2.49-4.22q0-4.53-7.09-5.37l-7.28-.83a14.72,14.72,0,0,1-7.86-2.84,7.36,7.36,0,0,1-2.75-6,7.56,7.56,0,0,1,3.64-6.68q3.64-2.4,10.35-2.4a34.19,34.19,0,0,1,6.62.61,16.69,16.69,0,0,1,4.88,1.66q1.86,1,1.86,2.4a2.63,2.63,0,0,1-.39,1.31,2.67,2.67,0,0,1-1.08,1.05,12.84,12.84,0,0,0-5.24-2.52,27.49,27.49,0,0,0-7.35-1,13.55,13.55,0,0,0-6.71,1.37,4.38,4.38,0,0,0-2.36,4c0,2.9,2.23,4.6,6.71,5.12l7.28.83Q1465.5,395.31,1465.5,402.78Z" transform="translate(-341.78 -74.92)"/><path class="cls-4" d="M1470.74,373.71c0-1.45.77-2.18,2.3-2.18a3.74,3.74,0,0,1,1.92.45v8.12h11.25c1.57,0,2.36.7,2.36,2.11a4.47,4.47,0,0,1-.38,1.72H1475v18.53a6.6,6.6,0,0,0,1.66,4.83,6.46,6.46,0,0,0,4.79,1.69,11.56,11.56,0,0,0,6.39-1.85l1.86,2.74a12.69,12.69,0,0,1-4.06,1.95,17.43,17.43,0,0,1-5,.74,10,10,0,0,1-7.22-2.5,9.09,9.09,0,0,1-2.62-6.9Z" transform="translate(-341.78 -74.92)"/><path class="cls-4" d="M1507.87,412.56a19.06,19.06,0,0,1-8.72-1.95A14.86,14.86,0,0,1,1493,405a16.19,16.19,0,0,1-2.23-8.63,18,18,0,0,1,2.14-8.82,15.71,15.71,0,0,1,6-6.13,17.91,17.91,0,0,1,9.11-2.24,15.06,15.06,0,0,1,9.23,2.65,8.57,8.57,0,0,1,3.55,7.26q0,9.7-18.15,9.71c-1.19,0-2.36,0-3.51-.07l-3.77-.12a11.34,11.34,0,0,0,4.18,7.5,13.7,13.7,0,0,0,8.85,2.78,18.26,18.26,0,0,0,9-2.55l1.85,3.07a19.21,19.21,0,0,1-5.17,2.26A22.38,22.38,0,0,1,1507.87,412.56Zm6.19-28.37a11,11,0,0,0-6.26-1.66,11.66,11.66,0,0,0-8.94,3.54,13.9,13.9,0,0,0-3.58,9.23l3.48.13c1.09.05,2.18.07,3.29.07q14.51,0,14.51-6.65A5.27,5.27,0,0,0,1514.06,384.19Z" transform="translate(-341.78 -74.92)"/><path class="cls-4" d="M1578.22,411.66H1574V393.13q0-5-2.49-7.67a9.36,9.36,0,0,0-7.1-2.62q-4.79,0-7.31,2.85c-1.68,1.89-2.53,4.59-2.53,8.08v17.89h-4.21V393.77c0-3.49-.84-6.19-2.53-8.08s-4.1-2.85-7.25-2.85a9.29,9.29,0,0,0-7.12,2.69q-2.54,2.69-2.53,7.79v18.34h-4.21V391.34a11.3,11.3,0,0,1,3.67-8.85q3.67-3.28,9.81-3.29,8.82,0,12.46,6.78a12.71,12.71,0,0,1,5-5,15.08,15.08,0,0,1,7.48-1.79,13.72,13.72,0,0,1,9.49,3.23,11.13,11.13,0,0,1,3.61,8.72Z" transform="translate(-341.78 -74.92)"/></g></g></g></svg>